<svg id="Layer_1" data-name="Layer 1" xmlns="http://www.w3.org/2000/svg" viewBox="0 0 161.69 158.3">
  <defs>
    <style>
      .cls-1, .cls-22 {
        fill: #fff;
      }

      .cls-2 {
        fill: #fff176;
      }

      .cls-3 {
        fill: #f4e364;
      }

      .cls-4 {
        fill: #f9a825;
      }

      .cls-5 {
        fill: #fff9c5;
      }

      .cls-6 {
        fill: #f4ecb3;
      }

      .cls-7 {
        fill: #fffbde;
      }

      .cls-8 {
        fill: #fcf5ca;
      }

      .cls-9 {
        fill: #ffb54a;
      }

      .cls-10 {
        fill: #d81a1a;
      }

      .cls-11 {
        fill: #eee;
      }

      .cls-12 {
        fill: #fc3030;
      }

      .cls-13 {
        fill: #e0e0e0;
      }

      .cls-14, .cls-21 {
        opacity: 0.1;
      }

      .cls-15 {
        fill: #c6c4c4;
      }

      .cls-16 {
        opacity: 0.05;
      }

      .cls-17, .cls-21 {
        fill: #d6811d;
      }

      .cls-17 {
        opacity: 0.15;
      }

      .cls-18 {
        fill: #f54337;
      }

      .cls-19 {
        fill: #d32f2e;
      }

      .cls-20 {
        fill: #d6d6d6;
      }

      .cls-22 {
        opacity: 0.19;
      }

      .cls-23 {
        fill: #f4bc71;
      }

      .cls-24 {
        fill: #ffcc80;
      }

      .cls-25 {
        fill: #edae48;
      }

      .cls-26 {
        fill: #ca5329;
      }

      .cls-27 {
        fill: #616162;
      }

      .cls-28 {
        fill: #484848;
      }

      .cls-29 {
        fill: #42a5f6;
      }

      .cls-30 {
        fill: #ee534f;
      }

      .cls-31 {
        fill: #66c1ff;
      }

      .cls-32 {
        fill: #e57373;
      }

      .cls-33 {
        opacity: 0.16;
      }
    </style>
  </defs>
  <rect class="cls-1" x="-35.39" y="-10.1" width="550" height="450"/>
  <g>
    <g>
      <g>
        <path class="cls-2" d="M120.56,38.11a6.22,6.22,0,0,0-11.28,5.19l0,.07A4.24,4.24,0,1,0,115.75,48a5.9,5.9,0,1,0,4.81-9.92Z"/>
        <path class="cls-3" d="M121.53,47.68A5.91,5.91,0,0,1,115,46.25a4.23,4.23,0,0,1-7.54,1.28,4.22,4.22,0,0,0,5.77,3.28A4.21,4.21,0,0,0,115.75,48a5.9,5.9,0,0,0,9.76-6.26,5.36,5.36,0,0,0-.44-.86A5.9,5.9,0,0,1,121.53,47.68Z"/>
        <path class="cls-4" d="M116.36,40l-.26.13v0A1.66,1.66,0,0,0,113,41.37h0a2.08,2.08,0,1,0,3,2.06,2,2,0,1,0,.32-3.44Z"/>
      </g>
      <g>
        <path class="cls-2" d="M120.56,38.11a6.22,6.22,0,0,0-11.28,5.19l0,.07A4.24,4.24,0,1,0,115.75,48a5.9,5.9,0,1,0,4.81-9.92Z"/>
        <path class="cls-3" d="M121.53,47.68A5.91,5.91,0,0,1,115,46.25a4.23,4.23,0,0,1-7.54,1.28,4.22,4.22,0,0,0,5.77,3.28A4.21,4.21,0,0,0,115.75,48a5.9,5.9,0,0,0,9.76-6.26,5.36,5.36,0,0,0-.44-.86A5.9,5.9,0,0,1,121.53,47.68Z"/>
        <path class="cls-4" d="M116.36,40l-.26.13v0A1.66,1.66,0,0,0,113,41.37h0a2.08,2.08,0,1,0,3,2.06,2,2,0,1,0,.32-3.44Z"/>
      </g>
      <path class="cls-5" d="M119.09,35.25a5.49,5.49,0,0,0-1.29.16A4.57,4.57,0,1,0,109.9,40,6.57,6.57,0,1,0,119,46h.11a5.39,5.39,0,1,0,0-10.78Z"/>
      <path class="cls-5" d="M109.3,36.22a4.3,4.3,0,0,0-.17,1.2,4,4,0,0,0,0,.5,7,7,0,0,1,.73-.35A4.68,4.68,0,0,1,109.3,36.22Z"/>
      <path class="cls-6" d="M119.09,43.64H119a6.57,6.57,0,0,1-13,1.19,6,6,0,0,0-.12,1.2A6.58,6.58,0,0,0,119,46h.11a5.39,5.39,0,0,0,5.4-5.39,5.32,5.32,0,0,0-.14-1.2A5.38,5.38,0,0,1,119.09,43.64Z"/>
      <path class="cls-5" d="M109.9,40a4.51,4.51,0,0,1-.73-2,6.58,6.58,0,0,0-3.34,5.72,5.79,5.79,0,0,0,.12,1.19A6.54,6.54,0,0,1,109.9,40Z"/>
      <path class="cls-4" d="M115.08,38.77a1.29,1.29,0,0,0-.16.17h0A1.3,1.3,0,1,0,113,40.75h0a1.64,1.64,0,1,0,2.8.63,1.54,1.54,0,1,0-.77-2.61Z"/>
      <g>
        <path class="cls-5" d="M112.71,28.17a3.69,3.69,0,0,0-.94.06,3.3,3.3,0,1,0-5.9,2.93,4.75,4.75,0,1,0,6.28,4.78h.09a3.9,3.9,0,1,0,.47-7.78Z"/>
        <path class="cls-5" d="M105.6,28.43a3.62,3.62,0,0,0-.17.87c0,.12,0,.24,0,.36a5.31,5.31,0,0,1,.55-.23A3.1,3.1,0,0,1,105.6,28.43Z"/>
        <path class="cls-6" d="M112.34,34.22h-.08a4.75,4.75,0,0,1-9.46.28,4.16,4.16,0,0,0-.13.86,4.75,4.75,0,1,0,9.48.58h.09a3.9,3.9,0,0,0,4.13-3.65,3.58,3.58,0,0,0-.05-.87A3.88,3.88,0,0,1,112.34,34.22Z"/>
        <path class="cls-5" d="M105.87,31.16a3.36,3.36,0,0,1-.44-1.5,4.77,4.77,0,0,0-2.66,4,4.91,4.91,0,0,0,0,.86A4.74,4.74,0,0,1,105.87,31.16Z"/>
        <path class="cls-4" d="M110,31.14l-.15.15h0A1.2,1.2,0,1,0,108,32.84h0a1.51,1.51,0,1,0,2.54.73,1.41,1.41,0,1,0-.56-2.44Z"/>
      </g>
      <g>
        <path class="cls-7" d="M105.09,22.11a4.07,4.07,0,0,0-.61.05v-.05a3.44,3.44,0,1,0-6.87,0h0a4.32,4.32,0,1,0,4.15,6.33,4,4,0,1,0,3.33-6.34Z"/>
        <path class="cls-8" d="M105.09,28.54a4.06,4.06,0,0,1-3.33-1.75,4.32,4.32,0,0,1-8.06-1.2,3.86,3.86,0,0,0-.09.84,4.33,4.33,0,0,0,8.15,2,4,4,0,0,0,7.38-2.3,3.84,3.84,0,0,0-.09-.83A4,4,0,0,1,105.09,28.54Z"/>
        <path class="cls-4" d="M102.26,23a1,1,0,0,0-.29,0,1,1,0,0,0-2,.45,1,1,0,0,0,.18.57,1.5,1.5,0,0,0-.92,1.38,1.49,1.49,0,0,0,3,0h0a1.22,1.22,0,0,0,0-2.44Z"/>
      </g>
      <g>
        <path class="cls-2" d="M80.52,27.23a4.58,4.58,0,0,0-8.82,2.4s0,0,0,.05a3.12,3.12,0,1,0,4.11,4.16,4.34,4.34,0,1,0,4.7-6.61Z"/>
        <path class="cls-3" d="M80.06,34.29a4.33,4.33,0,0,1-4.54-1.82,3.11,3.11,0,0,1-5.63,0,3.39,3.39,0,0,0,.07.7,3.11,3.11,0,0,0,5.86.65,4.34,4.34,0,0,0,7.84-3.35,3.59,3.59,0,0,0-.21-.68A4.33,4.33,0,0,1,80.06,34.29Z"/>
        <path class="cls-9" d="M77.24,28.08l-.21.07v0a1.22,1.22,0,1,0-2.38.55h0a1.54,1.54,0,1,0,1.94,1.86,1.44,1.44,0,1,0,.65-2.46Z"/>
      </g>
      <g>
        <path class="cls-2" d="M95.43,26.31a4.57,4.57,0,0,0-9.12-.54s0,0,0,.05a3.12,3.12,0,1,0,2.57,5.26,4.34,4.34,0,1,0,6.56-4.77Z"/>
        <path class="cls-3" d="M92.74,32.86A4.34,4.34,0,0,1,89,29.68a3.12,3.12,0,0,1-5.34-1.78,2.9,2.9,0,0,0-.16.69,3.12,3.12,0,0,0,5.35,2.49,4.34,4.34,0,0,0,8.5-.67,4.24,4.24,0,0,0,0-.71A4.36,4.36,0,0,1,92.74,32.86Z"/>
        <path class="cls-4" d="M92.05,26.08h-.22v0a1.22,1.22,0,0,0-1.1-1.33,1.21,1.21,0,0,0-1.33,1.09h0a1.53,1.53,0,1,0,1.24,2.38,1.44,1.44,0,1,0,1.4-2.12Z"/>
      </g>
      <g>
        <path class="cls-5" d="M83.22,40a5.21,5.21,0,0,0-1.06-.77,4.56,4.56,0,1,0-8.85-2.14,6.57,6.57,0,1,0,2.4,10.65h0l.08.08A5.39,5.39,0,1,0,83.22,40Z"/>
        <path class="cls-5" d="M75.44,34a4.88,4.88,0,0,0-1,.76c-.11.12-.21.26-.32.39a6.43,6.43,0,0,1,.78.24A4.71,4.71,0,0,1,75.44,34Z"/>
        <path class="cls-6" d="M77.44,46.1,77.35,46h0a6.57,6.57,0,0,1-10.27-8.11,6.14,6.14,0,0,0-.91.79,6.57,6.57,0,0,0,9.54,9h0l.08.08a5.4,5.4,0,0,0,7.63-.19,5.54,5.54,0,0,0,.72-1A5.38,5.38,0,0,1,77.44,46.1Z"/>
        <path class="cls-5" d="M73.31,37.1a4.55,4.55,0,0,1,.86-2A6.56,6.56,0,0,0,67.82,37a6,6,0,0,0-.74.94A6.6,6.6,0,0,1,73.31,37.1Z"/>
        <path class="cls-4" d="M77.67,40.73a1.36,1.36,0,0,0-.29,0v0a1.66,1.66,0,1,0-3.32,0h0a2.08,2.08,0,1,0,2,3,2,2,0,1,0,1.57-3.08Z"/>
      </g>
      <g>
        <path class="cls-2" d="M94.66,40a6.22,6.22,0,0,0-12.41.6s0,0,0,.08a4.23,4.23,0,1,0,4.23,6.73A5.9,5.9,0,1,0,94.66,40Z"/>
        <path class="cls-3" d="M92,49.2a5.9,5.9,0,0,1-5.49-3.75A4.23,4.23,0,0,1,79,43.82a4.35,4.35,0,0,0-.11,1,4.23,4.23,0,0,0,7.58,2.59,5.9,5.9,0,0,0,11.39-2.16,6.24,6.24,0,0,0-.08-1A5.9,5.9,0,0,1,92,49.2Z"/>
        <path class="cls-4" d="M90.06,40.14l-.29,0v0a1.66,1.66,0,1,0-3.32,0h0a2.09,2.09,0,0,0,.19,4.17,2.12,2.12,0,0,0,1.84-1.13,2,2,0,1,0,1.58-3.07Z"/>
      </g>
      <g>
        <path class="cls-2" d="M104.28,40.2A6.21,6.21,0,0,0,98,29.49l-.06,0a4.24,4.24,0,1,0-4,6.87,5.9,5.9,0,1,0,10.34,3.81Z"/>
        <path class="cls-3" d="M94.86,42.1a5.88,5.88,0,0,1,.78-6.6,4.19,4.19,0,0,1-3-2.2,4.24,4.24,0,0,1,1-5.18,3.81,3.81,0,0,0-.9.35,4.23,4.23,0,0,0,1.21,7.92,5.9,5.9,0,0,0,7.18,9.1,7.6,7.6,0,0,0,.82-.52A5.9,5.9,0,0,1,94.86,42.1Z"/>
        <path class="cls-4" d="M102,36.21a1.32,1.32,0,0,0-.16-.25h0a1.67,1.67,0,0,0,.68-2.25,1.65,1.65,0,0,0-2.24-.68h0a2.09,2.09,0,1,0-1.76,3.21,2,2,0,1,0,3.46,0Z"/>
      </g>
      <g>
        <path class="cls-7" d="M106.19,39.32a4.63,4.63,0,0,0-.74.07s0,0,0-.07a4.14,4.14,0,0,0-8.28,0v0a5.21,5.21,0,1,0,5,7.63,4.88,4.88,0,1,0,4-7.65Z"/>
        <path class="cls-8" d="M106.19,47.07a4.85,4.85,0,0,1-4-2.11,5.2,5.2,0,0,1-9.71-1.43,4.71,4.71,0,0,0-.1,1A5.21,5.21,0,0,0,102.18,47a4.88,4.88,0,0,0,8.89-2.77,4.71,4.71,0,0,0-.11-1A4.87,4.87,0,0,1,106.19,47.07Z"/>
        <path class="cls-9" d="M102.79,40.43a1.34,1.34,0,0,0-.35,0,1.26,1.26,0,0,0-1.12-.69A1.23,1.23,0,0,0,100.08,41a1.2,1.2,0,0,0,.21.69,1.79,1.79,0,1,0,2.47,1.65h0a1.47,1.47,0,1,0,0-2.93Z"/>
      </g>
      <g>
        <path class="cls-7" d="M90.25,30.08a4.07,4.07,0,0,0-.61.06v-.06a3.44,3.44,0,0,0-6.87,0v0a4.32,4.32,0,1,0,4.15,6.33,4,4,0,1,0,3.33-6.35Z"/>
        <path class="cls-8" d="M90.25,36.52a4.06,4.06,0,0,1-3.33-1.75,4.33,4.33,0,0,1-8.07-1.2,4.6,4.6,0,0,0-.08.84,4.33,4.33,0,0,0,8.15,2,4,4,0,0,0,7.38-2.3,3.84,3.84,0,0,0-.09-.83A4,4,0,0,1,90.25,36.52Z"/>
        <path class="cls-4" d="M87.42,31a1,1,0,0,0-.29,0,1,1,0,0,0-2,.45,1,1,0,0,0,.18.57,1.5,1.5,0,0,0-.92,1.38,1.49,1.49,0,0,0,3,0h0a1.22,1.22,0,0,0,0-2.44Z"/>
      </g>
      <g>
        <path class="cls-2" d="M106.2,39.24a6.22,6.22,0,0,0-11.28,5.2l0,.06a4.23,4.23,0,0,0,4,7.44,4.2,4.2,0,0,0,2.49-2.78,5.9,5.9,0,1,0,4.81-9.92Z"/>
        <path class="cls-3" d="M107.17,48.81a5.9,5.9,0,0,1-6.49-1.42,4.23,4.23,0,0,1-7.54,1.28,4.58,4.58,0,0,0,.25.93,4.23,4.23,0,0,0,8-.44,5.9,5.9,0,0,0,9.76-6.25,5.07,5.07,0,0,0-.44-.87A5.9,5.9,0,0,1,107.17,48.81Z"/>
        <path class="cls-4" d="M102,41.12a1.3,1.3,0,0,0-.26.14v0a1.66,1.66,0,0,0-3.07,1.27h0a2.09,2.09,0,1,0,3,2.05,1.93,1.93,0,0,0,1.81.17A2,2,0,1,0,102,41.12Z"/>
      </g>
      <g>
        <path class="cls-2" d="M106.2,39.24a6.22,6.22,0,0,0-11.28,5.2l0,.06a4.23,4.23,0,0,0,4,7.44,4.2,4.2,0,0,0,2.49-2.78,5.9,5.9,0,1,0,4.81-9.92Z"/>
        <path class="cls-3" d="M107.17,48.81a5.9,5.9,0,0,1-6.49-1.42,4.23,4.23,0,0,1-7.54,1.28,4.58,4.58,0,0,0,.25.93,4.23,4.23,0,0,0,8-.44,5.9,5.9,0,0,0,9.76-6.25,5.07,5.07,0,0,0-.44-.87A5.9,5.9,0,0,1,107.17,48.81Z"/>
        <path class="cls-4" d="M102,41.12a1.3,1.3,0,0,0-.26.14v0a1.66,1.66,0,0,0-3.07,1.27h0a2.09,2.09,0,1,0,3,2.05,1.93,1.93,0,0,0,1.81.17A2,2,0,1,0,102,41.12Z"/>
      </g>
      <g>
        <path class="cls-5" d="M104.73,36.38a5.43,5.43,0,0,0-1.29.16,4.57,4.57,0,1,0-7.9,4.55,6.57,6.57,0,1,0,9.07,6.07h.12a5.39,5.39,0,1,0,0-10.78Z"/>
        <path class="cls-5" d="M94.94,37.35a4.4,4.4,0,0,0-.17,1.2,4.21,4.21,0,0,0,0,.51,5,5,0,0,1,.73-.36A4.68,4.68,0,0,1,94.94,37.35Z"/>
        <path class="cls-6" d="M104.73,44.77h-.12a6.57,6.57,0,0,1-13,1.2,6.67,6.67,0,0,0-.11,1.19,6.57,6.57,0,1,0,13.14,0h.12a5.39,5.39,0,0,0,5.4-5.39,5.32,5.32,0,0,0-.14-1.2A5.39,5.39,0,0,1,104.73,44.77Z"/>
        <path class="cls-5" d="M95.54,41.09a4.47,4.47,0,0,1-.73-2,6.56,6.56,0,0,0-3.34,5.71,6.78,6.78,0,0,0,.11,1.2A6.59,6.59,0,0,1,95.54,41.09Z"/>
        <path class="cls-4" d="M101.21,40.72a1.37,1.37,0,0,0-.2.22v0a1.66,1.66,0,0,0-2.38,2.31h0a2.08,2.08,0,1,0,3.57.79,2,2,0,1,0-1-3.31Z"/>
      </g>
      <g>
        <path class="cls-5" d="M98.35,29.3a3.66,3.66,0,0,0-.94.06,3.3,3.3,0,0,0-6.34,1.07,3.25,3.25,0,0,0,.44,1.86,4.75,4.75,0,1,0,6.28,4.79h.09a3.9,3.9,0,0,0,.47-7.78Z"/>
        <path class="cls-5" d="M91.24,29.57a3.45,3.45,0,0,0-.17.86c0,.12,0,.24,0,.36.18-.08.36-.16.54-.22A3.54,3.54,0,0,1,91.24,29.57Z"/>
        <path class="cls-6" d="M98,35.36H97.9a4.75,4.75,0,0,1-9.46.29,4.68,4.68,0,0,0-.14.86,4.75,4.75,0,0,0,9.49.58h.09A3.89,3.89,0,0,0,102,33.43a4.17,4.17,0,0,0,0-.87A3.91,3.91,0,0,1,98,35.36Z"/>
        <path class="cls-5" d="M91.51,32.29a3.32,3.32,0,0,1-.44-1.5,4.75,4.75,0,0,0-2.66,4,4.22,4.22,0,0,0,0,.87A4.77,4.77,0,0,1,91.51,32.29Z"/>
        <path class="cls-4" d="M95.62,32.27l-.16.16v0A1.2,1.2,0,1,0,93.63,34h0a1.51,1.51,0,1,0,2.54.73,1.41,1.41,0,1,0-.56-2.44Z"/>
      </g>
      <g>
        <path class="cls-5" d="M86.54,14.67a3.66,3.66,0,0,0-.94.06,3.3,3.3,0,1,0-5.9,2.93A4.75,4.75,0,1,0,86,22.44h.08a3.9,3.9,0,0,0,.48-7.78Z"/>
        <path class="cls-5" d="M79.43,14.93a3.54,3.54,0,0,0-.18.87c0,.12,0,.24,0,.36.18-.09.36-.16.54-.23A3.33,3.33,0,0,1,79.43,14.93Z"/>
        <path class="cls-6" d="M86.17,20.72h-.09a4.75,4.75,0,0,1-9.45.28,5,5,0,0,0-.14.86,4.75,4.75,0,1,0,9.49.58h.08a3.9,3.9,0,0,0,4.13-3.65,4.17,4.17,0,0,0,0-.87A3.89,3.89,0,0,1,86.17,20.72Z"/>
        <path class="cls-5" d="M79.7,17.66a3.36,3.36,0,0,1-.44-1.5,4.75,4.75,0,0,0-2.66,4,4.1,4.1,0,0,0,0,.86A4.72,4.72,0,0,1,79.7,17.66Z"/>
        <path class="cls-4" d="M83.8,17.64l-.15.15h0a1.2,1.2,0,1,0-1.82,1.56h0a1.51,1.51,0,0,0,2,2.21,1.51,1.51,0,0,0,.49-1.48,1.41,1.41,0,1,0-.57-2.44Z"/>
      </g>
      <g>
        <path class="cls-7" d="M90.73,23.24a4,4,0,0,0-.61.05v-.05a3.44,3.44,0,0,0-6.88,0h0a4.33,4.33,0,1,0,4.16,6.33,4,4,0,1,0,3.33-6.34Z"/>
        <path class="cls-8" d="M90.73,29.67a4.06,4.06,0,0,1-3.33-1.75,4.33,4.33,0,0,1-8.07-1.19,4.58,4.58,0,0,0-.08.83,4.32,4.32,0,0,0,8.15,2,4,4,0,0,0,7.37-2.3,4.58,4.58,0,0,0-.08-.83A4.05,4.05,0,0,1,90.73,29.67Z"/>
        <path class="cls-4" d="M87.9,24.15a1.35,1.35,0,0,0-.29,0,1,1,0,0,0-.93-.58,1,1,0,0,0-1,1,1,1,0,0,0,.17.58,1.48,1.48,0,1,0,2.06,1.37h0a1.22,1.22,0,0,0,0-2.44Z"/>
      </g>
      <g>
        <path class="cls-2" d="M65.21,28.36a4.58,4.58,0,0,0-8.82,2.4.43.43,0,0,0,0,0,3.12,3.12,0,0,0,2,5.88A3.09,3.09,0,0,0,60.51,35a4.34,4.34,0,1,0,4.7-6.62Z"/>
        <path class="cls-3" d="M64.75,35.42a4.33,4.33,0,0,1-4.54-1.82,3.11,3.11,0,0,1-5.63,0,3.33,3.33,0,0,0,.07.7,3.12,3.12,0,0,0,5.86.66,4.34,4.34,0,0,0,7.84-3.36,3.83,3.83,0,0,0-.21-.68A4.33,4.33,0,0,1,64.75,35.42Z"/>
        <path class="cls-9" d="M61.93,29.21l-.21.07v0a1.23,1.23,0,0,0-1.47-.91,1.21,1.21,0,0,0-.91,1.46h0a1.53,1.53,0,1,0,1.94,1.86,1.44,1.44,0,1,0,.65-2.47Z"/>
      </g>
      <g>
        <path class="cls-2" d="M75.77,24.07a4.58,4.58,0,0,0-9,1.28s0,0,0,0a3.12,3.12,0,1,0,3.55,4.65,4.34,4.34,0,1,0,5.49-6Z"/>
        <path class="cls-3" d="M74.43,31a4.36,4.36,0,0,1-4.28-2.37,3.11,3.11,0,0,1-5.58-.7,3.35,3.35,0,0,0,0,.71,3.11,3.11,0,0,0,5.73,1.39,4.34,4.34,0,0,0,8.2-2.35,4.1,4.1,0,0,0-.12-.7A4.34,4.34,0,0,1,74.43,31Z"/>
        <path class="cls-9" d="M72.41,24.51l-.21,0v0a1.22,1.22,0,0,0-1.34-1.09,1.21,1.21,0,0,0-1.09,1.33h0a1.54,1.54,0,1,0,1.69,2.09,1.42,1.42,0,0,0,1.24.5,1.44,1.44,0,1,0-.29-2.86Z"/>
      </g>
      <g>
        <path class="cls-2" d="M81.07,27.45a4.58,4.58,0,0,0-9.13-.55V27a3.12,3.12,0,0,0,0,6.2,3.1,3.1,0,0,0,2.58-.94,4.34,4.34,0,1,0,6.57-4.76Z"/>
        <path class="cls-3" d="M78.37,34a4.33,4.33,0,0,1-3.71-3.18A3.12,3.12,0,0,1,69.32,29a3.15,3.15,0,0,0-.16.69,3.11,3.11,0,0,0,5.34,2.49A4.34,4.34,0,0,0,83,31.54a4.22,4.22,0,0,0,0-.71A4.33,4.33,0,0,1,78.37,34Z"/>
        <path class="cls-4" d="M77.69,27.21h-.22A1.22,1.22,0,1,0,75,26.94h0a1.53,1.53,0,1,0,1.25,2.38,1.44,1.44,0,1,0,1.4-2.12Z"/>
      </g>
      <path class="cls-5" d="M67.91,41.14a5.21,5.21,0,0,0-1.06-.77A4.56,4.56,0,1,0,58,38.23a6.57,6.57,0,1,0,2.39,10.65h0l.08.09a5.4,5.4,0,0,0,7.43-7.83Z"/>
      <path class="cls-5" d="M60.13,35.1a4.88,4.88,0,0,0-1,.76l-.32.39q.41.11.78.24A4.53,4.53,0,0,1,60.13,35.1Z"/>
      <path class="cls-6" d="M62.13,47.23,62,47.15h0A6.57,6.57,0,0,1,51.77,39a7.58,7.58,0,0,0-.91.79,6.57,6.57,0,1,0,9.53,9.05h0l.08.09a5.39,5.39,0,0,0,7.62-.2,5.08,5.08,0,0,0,.73-1A5.4,5.4,0,0,1,62.13,47.23Z"/>
      <path class="cls-5" d="M58,38.23a4.6,4.6,0,0,1,.86-2A6.55,6.55,0,0,0,51.77,39,6.6,6.6,0,0,1,58,38.23Z"/>
      <path class="cls-4" d="M60.6,40.62l-.21,0v0a1.21,1.21,0,1,0-2.41,0h0a1.52,1.52,0,0,0,.16,3,1.49,1.49,0,0,0,1.32-.83,1.4,1.4,0,0,0,1.18.6,1.42,1.42,0,1,0,0-2.83Z"/>
      <g>
        <path class="cls-2" d="M80.3,41.09a6.22,6.22,0,0,0-12.41.61s0,0,0,.07a4.24,4.24,0,1,0,4.23,6.73,5.9,5.9,0,1,0,8.17-7.41Z"/>
        <path class="cls-3" d="M77.62,50.33a5.89,5.89,0,0,1-5.49-3.75A4.23,4.23,0,0,1,64.66,45a4.35,4.35,0,0,0-.12,1,4.24,4.24,0,0,0,7.59,2.59,5.9,5.9,0,0,0,11.39-2.16,5,5,0,0,0-.09-1A5.89,5.89,0,0,1,77.62,50.33Z"/>
        <path class="cls-4" d="M75.7,41.27l-.3,0v0a1.66,1.66,0,1,0-3.31,0h0a2.09,2.09,0,1,0,2,3,1.91,1.91,0,0,0,1.61.83,2,2,0,1,0,0-3.9Z"/>
      </g>
      <g>
        <path class="cls-2" d="M89.92,41.34a6.22,6.22,0,0,0-6.27-10.72l-.06,0a4.24,4.24,0,1,0-4,6.87,5.9,5.9,0,1,0,10.34,3.82Z"/>
        <path class="cls-3" d="M80.49,43.23a5.88,5.88,0,0,1,.79-6.59,4.23,4.23,0,0,1-2-7.38,4.72,4.72,0,0,0-.9.34,4.23,4.23,0,0,0,1.22,7.92,5.9,5.9,0,0,0,7.18,9.1,6.31,6.31,0,0,0,.82-.52A5.9,5.9,0,0,1,80.49,43.23Z"/>
        <path class="cls-4" d="M87.64,37.34a2.13,2.13,0,0,0-.16-.25h0a1.66,1.66,0,1,0-1.56-2.93h0a2.09,2.09,0,1,0-1.76,3.21,2,2,0,0,0,0,1.82,2,2,0,0,0,3.45-1.84Z"/>
      </g>
      <path class="cls-7" d="M91.83,40.46a4.52,4.52,0,0,0-.74.06v-.06a4.14,4.14,0,0,0-8.28,0v0a5.2,5.2,0,1,0,5,7.62,4.87,4.87,0,1,0,4-7.64Z"/>
      <path class="cls-8" d="M91.83,48.2a4.87,4.87,0,0,1-4-2.1,5.21,5.21,0,0,1-9.72-1.44,5.5,5.5,0,0,0-.09,1,5.21,5.21,0,0,0,9.81,2.43,4.87,4.87,0,0,0,8.88-2.77,4.71,4.71,0,0,0-.1-1A4.87,4.87,0,0,1,91.83,48.2Z"/>
      <path class="cls-9" d="M87.36,43a1.07,1.07,0,0,0-.25,0,.87.87,0,0,0-1.66.39.78.78,0,0,0,.15.48A1.26,1.26,0,1,0,87.34,45h0a1,1,0,1,0,0-2.07Z"/>
      <g>
        <path class="cls-7" d="M75.89,31.22a4.21,4.21,0,0,0-.62.05.43.43,0,0,1,0-.05,3.44,3.44,0,0,0-6.88,0h0a4.32,4.32,0,1,0,4.16,6.33,4,4,0,1,0,3.33-6.34Z"/>
        <path class="cls-8" d="M75.89,37.65a4.06,4.06,0,0,1-3.33-1.75,4.33,4.33,0,0,1-8.07-1.2,4.78,4.78,0,0,0-.08.84,4.33,4.33,0,0,0,8.15,2,4,4,0,0,0,7.37-2.3,4.58,4.58,0,0,0-.08-.83A4.05,4.05,0,0,1,75.89,37.65Z"/>
        <path class="cls-4" d="M73.06,32.13a1.35,1.35,0,0,0-.29,0,1,1,0,0,0-.93-.58,1,1,0,0,0-1,1,1.13,1.13,0,0,0,.17.58A1.48,1.48,0,1,0,73,34.57h0a1.22,1.22,0,0,0,0-2.44Z"/>
      </g>
      <path class="cls-10" d="M58.16,51.88H49.7a4.94,4.94,0,0,0,.2,1.23l12.48,81.47H68Q63.15,93.7,58.28,52.84A5,5,0,0,1,58.16,51.88Z"/>
      <path class="cls-11" d="M92,51.88l-1.41,82.7h5.64q2.12-41.36,4.22-82.7Z"/>
      <path class="cls-12" d="M100.43,51.88q-2.1,41.36-4.22,82.7h5.64q3.53-41.36,7-82.7Z"/>
      <path class="cls-12" d="M83.53,51.88q.7,41.36,1.4,82.7h5.64L92,51.88Z"/>
      <path class="cls-13" d="M108.89,51.88q-3.52,41.36-7,82.7h5.64q4.88-40.88,9.74-81.74a5,5,0,0,0,.12-1Z"/>
      <path class="cls-10" d="M117.35,51.88a5,5,0,0,1-.12,1q-4.87,40.88-9.74,81.74h5.64l12.48-81.47a4.94,4.94,0,0,0,.19-1.23Z"/>
      <path class="cls-11" d="M75.07,51.88q2.12,41.36,4.22,82.7h5.64q-.71-41.36-1.4-82.7Z"/>
      <path class="cls-12" d="M66.62,51.88q3.51,41.36,7,82.7h5.63q-2.1-41.36-4.22-82.7Z"/>
      <path class="cls-13" d="M58.16,51.88a5,5,0,0,0,.12,1Q63.14,93.72,68,134.58h5.64q-3.52-41.36-7-82.7Z"/>
      <path class="cls-14" d="M57.46,102.49l4.92,32.09h50.75c.49-3.23,1-6.45,1.48-9.68a65.16,65.16,0,0,1-8.78.61A61.23,61.23,0,0,1,57.46,102.49Z"/>
      <rect class="cls-11" x="61.92" y="132.83" width="51.64" height="3.5"/>
      <rect class="cls-15" x="98.9" y="132.83" width="14.66" height="3.5"/>
      <rect class="cls-15" x="61.92" y="132.83" width="15.21" height="3.5"/>
      <g class="cls-16">
        <polygon class="cls-1" points="70.45 51.88 75.07 132.83 88.64 132.83 88.64 51.88 70.45 51.88"/>
      </g>
      <path class="cls-17" d="M125.8,51.88H50.57c-.87,0-.87.12-.84.36,3.33,27.53,23.15,47.41,50.7,47.41A52.42,52.42,0,0,0,119,96.27q3.3-21.58,6.61-43.16A4.94,4.94,0,0,0,125.8,51.88Z"/>
      <rect class="cls-15" x="49.7" y="47.41" width="76.1" height="4.48"/>
      <rect class="cls-11" x="66.77" y="47.41" width="41.87" height="4.48"/>
    </g>
    <g>
      <g>
        <path class="cls-18" d="M32.07,50.61H29.14V41.68a9.55,9.55,0,0,1,6.73-9.16L50.46,28l-.59,3.29L36.75,35.32a6.63,6.63,0,0,0-4.68,6.36Z"/>
        <path class="cls-19" d="M32.07,41.68a6.63,6.63,0,0,1,4.68-6.36l13.12-4.08.31-1.77-12.84,4a9.55,9.55,0,0,0-6.73,9.16v8h1.46Z"/>
      </g>
      <path class="cls-15" d="M45.67,52.36A5.69,5.69,0,0,1,40,58H21.55a5.69,5.69,0,0,1-5.68-5.68h0a5.69,5.69,0,0,1,5.68-5.69H40a5.69,5.69,0,0,1,5.69,5.69Z"/>
      <path class="cls-20" d="M39.8,52.36c0,3.13-1.53,5.68-3.4,5.68h-11C23.48,58,22,55.49,22,52.36h0c0-3.14,1.53-5.69,3.41-5.69h11c1.87,0,3.4,2.55,3.4,5.69Z"/>
      <polygon class="cls-10" points="48.6 130.3 12.42 130.3 7.53 55.99 53.49 55.99 48.6 130.3"/>
      <polygon class="cls-12" points="17.31 55.99 22.2 130.3 38.33 130.3 43.22 55.99 17.31 55.99"/>
      <rect class="cls-11" x="12.42" y="130.3" width="36.18" height="2.93"/>
      <rect class="cls-13" x="38.33" y="130.3" width="10.27" height="2.93"/>
      <rect class="cls-13" x="12.42" y="130.3" width="9.53" height="2.93"/>
      <path class="cls-13" d="M49.33,50.61H11.93A5.62,5.62,0,0,0,6.32,56H54.94A5.62,5.62,0,0,0,49.33,50.61Z"/>
      <path class="cls-11" d="M40.51,50.61H19.81c-1.67,0-3,2.39-3.1,5.38H43.62C43.55,53,42.19,50.61,40.51,50.61Z"/>
      <g class="cls-16">
        <polygon points="7.53 55.99 7.79 59.9 53.23 59.9 53.49 55.99 7.53 55.99"/>
      </g>
      <path class="cls-14" d="M10,93.86l2.4,36.44H48.6l.24-3.67C31.49,124.66,16.87,111.75,10,93.86Z"/>
      <path class="cls-19" d="M7.53,56v.2a1.46,1.46,0,0,0,0-.2Z"/>
      <g class="cls-16">
        <polygon class="cls-1" points="22.74 55.99 26.84 130.3 31.98 130.3 30.27 55.99 22.74 55.99"/>
      </g>
      <path class="cls-21" d="M7.53,56l1,11.53c5.84,16.73,21.7,31.57,40.36,31.57.61,0,1.21,0,1.82,0L53.49,56Z"/>
      <path class="cls-22" d="M49.33,50.61H11.93A5.59,5.59,0,0,0,7.15,53.3h47A5.62,5.62,0,0,0,49.33,50.61Z"/>
      <path class="cls-22" d="M40,46.67H21.55A5.66,5.66,0,0,0,17,48.93H44.51A5.68,5.68,0,0,0,40,46.67Z"/>
    </g>
    <g>
      <path class="cls-23" d="M114.9,85.22l15.51,7.34A5.4,5.4,0,0,0,133,99.75l-15.85,33.51a5.4,5.4,0,0,0-7.19,2.58L94.44,128.5a5.4,5.4,0,0,0-2.58-7.19L107.7,87.8A5.42,5.42,0,0,0,114.9,85.22Z"/>
      <path class="cls-24" d="M114.25,84.92l15.51,7.33a5.42,5.42,0,0,0,2.58,7.2L116.49,133a5.4,5.4,0,0,0-7.19,2.58l-15.52-7.34A5.39,5.39,0,0,0,91.21,121l15.84-33.51A5.41,5.41,0,0,0,114.25,84.92Z"/>
      <path class="cls-25" d="M109.09,91.44a1.8,1.8,0,0,1,2.4-.86l15.42,7.29a1.81,1.81,0,0,1,.86,2.4l-13.52,28.59a1.81,1.81,0,0,1-2.4.86l-15.42-7.29a1.8,1.8,0,0,1-.86-2.4Z"/>
      <path class="cls-26" d="M112.62,130.35a2.33,2.33,0,0,1-1-.22l-15.42-7.29a2.27,2.27,0,0,1-1.07-3l13.52-28.59a2.31,2.31,0,0,1,3-1.08l15.42,7.3a2.26,2.26,0,0,1,1.08,3l-13.52,28.59A2.26,2.26,0,0,1,112.62,130.35Zm-1.9-39.49a1.35,1.35,0,0,0-1.22.77L96,120.22a1.35,1.35,0,0,0,.64,1.79L112,129.3a1.38,1.38,0,0,0,1.8-.64l13.51-28.59a1.27,1.27,0,0,0,.05-1,1.35,1.35,0,0,0-.69-.76L111.29,91A1.25,1.25,0,0,0,110.72,90.86Z"/>
      <g>
        <path class="cls-26" d="M104.54,117.34a2.53,2.53,0,0,1-.27,1,1.79,1.79,0,0,1-2.57.89,1.91,1.91,0,0,1-1-2.68,2.13,2.13,0,0,1,.54-.75l.32.28a1.85,1.85,0,0,0-.48.63,1.44,1.44,0,0,0,.8,2,1.4,1.4,0,0,0,2-.68,2,2,0,0,0,.2-.8Z"/>
        <path class="cls-26" d="M102.07,113.85l3.48,1.65-.21.45-3.48-1.65Z"/>
        <path class="cls-26" d="M106.34,113.84l-3.49-1.65.24-.49,2.29-.28a9.17,9.17,0,0,1,1.42-.09v0a14,14,0,0,1-1.45-.62l-1.46-.69.2-.42,3.48,1.64-.21.46-2.29.27a12.82,12.82,0,0,1-1.47.1v0c.45.18.87.37,1.45.64l1.49.7Z"/>
        <path class="cls-26" d="M107.58,107l-.64,1.36,1.25.59.72-1.51.37.18-.92,2-3.48-1.65.89-1.88.37.18-.67,1.43,1.1.52.64-1.35Z"/>
        <path class="cls-26" d="M109.83,102.48c-.49-.2-1.09-.45-1.52-.66v0c.35.31.72.66,1.11,1.06l1.4,1.42-.16.34-1.92-.22c-.57-.07-1.09-.14-1.55-.24h0c.43.21,1,.52,1.5.79l1.45.8-.2.43-3.37-1.89.28-.57,2,.2c.5.06.94.12,1.34.2h0a13,13,0,0,1-1-.92l-1.39-1.42.27-.57,3.58,1.43-.21.44Z"/>
        <path class="cls-26" d="M111.5,100.08l.92.88-.21.46-2.93-2.83.26-.54,4,.46-.22.48-1.27-.15Zm.19-1.31-1.16-.13c-.27,0-.5-.08-.72-.12h0c.18.15.37.3.55.47l.84.82Z"/>
      </g>
      <rect class="cls-26" x="96.55" y="109.74" width="30.81" height="0.72" transform="translate(-35.44 164.25) rotate(-64.69)"/>
      <g>
        <path class="cls-26" d="M110.6,117.86l-.38.8-.29-.14.92-2,.29.14-.38.81,2.34,1.1-.16.35Z"/>
        <path class="cls-26" d="M111.46,115.28l2.64,1.24-.16.34-2.64-1.24Z"/>
        <path class="cls-26" d="M115.48,113.38a2,2,0,0,1-.21.76,1.35,1.35,0,0,1-1.94.67,1.46,1.46,0,0,1-.74-2,1.61,1.61,0,0,1,.42-.57l.24.21a1.38,1.38,0,0,0-.37.48,1.08,1.08,0,0,0,.6,1.54,1.06,1.06,0,0,0,1.54-.51,1.36,1.36,0,0,0,.15-.61Z"/>
        <path class="cls-26" d="M113.45,111.09l.16-.34,1.27.6v0a2.79,2.79,0,0,1-.18-.34l-.61-1.27.2-.42.67,1.48,2-.31-.19.4-1.7.26.17.39,1,.47-.16.34Z"/>
        <path class="cls-26" d="M116.81,107.6l-.49,1,1,.45.54-1.14.29.14-.7,1.48-2.64-1.25.67-1.42.29.14-.51,1.08.83.39.48-1Z"/>
        <path class="cls-26" d="M116.54,105.29l-.38.8-.29-.14.92-2,.29.14-.38.81,2.35,1.1-.17.35Z"/>
      </g>
      <polygon class="cls-26" points="115.31 123.39 113.25 121.53 116.07 121.78 113.59 122.98 114.65 120.74 115.31 123.39"/>
      <polygon class="cls-26" points="119.77 113.94 117.72 112.09 120.54 112.33 118.06 113.53 119.12 111.3 119.77 113.94"/>
      <polygon class="cls-26" points="123.93 105.15 121.87 103.29 124.69 103.54 122.22 104.74 123.28 102.5 123.93 105.15"/>
      <polygon class="cls-26" points="110.2 111.3 109.03 110.24 110.64 110.38 109.22 111.07 109.83 109.79 110.2 111.3"/>
      <polygon class="cls-26" points="109.28 113.26 108.1 112.2 109.72 112.33 108.3 113.02 108.91 111.74 109.28 113.26"/>
      <polygon class="cls-26" points="112.05 107.39 110.88 106.33 112.49 106.47 111.07 107.16 111.68 105.88 112.05 107.39"/>
      <polygon class="cls-26" points="111.13 109.35 109.95 108.29 111.56 108.43 110.15 109.11 110.75 107.83 111.13 109.35"/>
      <path class="cls-23" d="M75.31,92.21l15-5.57a5.06,5.06,0,0,0,6.5,3l12,32.49a5.05,5.05,0,0,0-3,6.49l-15,5.57a5.06,5.06,0,0,0-6.5-3l-12-32.5A5,5,0,0,0,75.31,92.21Z"/>
      <path class="cls-24" d="M74.68,92.45l15-5.57a5.06,5.06,0,0,0,6.5,3l12,32.5a5,5,0,0,0-3,6.49l-15,5.57a5.06,5.06,0,0,0-6.5-3l-12-32.49A5.06,5.06,0,0,0,74.68,92.45Z"/>
      <path class="cls-25" d="M75.66,100.16a1.7,1.7,0,0,1,1-2.17l15-5.53a1.69,1.69,0,0,1,2.17,1L104,121.18a1.68,1.68,0,0,1-1,2.16l-15,5.54a1.68,1.68,0,0,1-2.16-1Z"/>
      <path class="cls-26" d="M87.51,129.44a2.14,2.14,0,0,1-2-1.4L75.23,100.31a2.16,2.16,0,0,1,1.27-2.75l15-5.53a2.19,2.19,0,0,1,2.76,1.26L104.47,121a2.14,2.14,0,0,1-1.27,2.75l-15,5.54A2.1,2.1,0,0,1,87.51,129.44ZM92.2,92.81a1.25,1.25,0,0,0-.43.07l-15,5.54a1.18,1.18,0,0,0-.69.64,1.23,1.23,0,0,0,0,.94l10.26,27.73a1.26,1.26,0,0,0,1.58.72l15-5.53a1.23,1.23,0,0,0,.72-1.58L93.35,93.61A1.23,1.23,0,0,0,92.2,92.81Z"/>
      <g>
        <path class="cls-26" d="M90,120.13a2.26,2.26,0,0,1,.49.83,1.67,1.67,0,0,1-1.09,2.3,1.78,1.78,0,0,1-2.42-1.1,1.86,1.86,0,0,1-.15-.86l.4,0a1.6,1.6,0,0,0,.11.74,1.34,1.34,0,0,0,1.88.8,1.31,1.31,0,0,0,.88-1.8,1.82,1.82,0,0,0-.41-.66Z"/>
        <path class="cls-26" d="M86.05,119.51l3.38-1.25.16.43-3.38,1.25Z"/>
        <path class="cls-26" d="M88.83,116.64l-3.38,1.25-.17-.47,1.3-1.72a11.8,11.8,0,0,1,.88-1h0c-.44.21-.85.37-1.37.57l-1.41.52-.16-.41,3.38-1.25.16.44-1.31,1.71a10.36,10.36,0,0,1-.9,1v0c.42-.19.82-.35,1.38-.55l1.45-.54Z"/>
        <path class="cls-26" d="M85.06,111.33l.49,1.31,1.22-.45-.55-1.46.37-.13.7,1.89-3.37,1.25-.68-1.82.37-.13.51,1.38,1.07-.39-.49-1.31Z"/>
        <path class="cls-26" d="M83.53,106.88c-.46.2-1,.44-1.44.59v0c.43,0,.91,0,1.44,0h1.85l.13.33-1.41,1.14c-.42.34-.8.63-1.17.88h0c.42-.15,1-.34,1.51-.49l1.48-.45.16.42-3.46,1-.21-.55,1.42-1.18c.36-.3.69-.55,1-.77h0c-.37,0-.78.06-1.26.07H81.73l-.2-.56,3.29-1.46.16.43Z"/>
        <path class="cls-26" d="M83,104.2l1.2,0,.16.45-3.8.11-.19-.53,3-2.4.17.46-.93.76Zm-.75-1-.85.7c-.19.15-.37.28-.55.4h0c.22,0,.44,0,.67-.06l1.1,0Z"/>
      </g>
      <rect class="cls-26" x="89.67" y="96.05" width="0.67" height="28.8" transform="translate(-32.75 38.12) rotate(-20.31)"/>
      <g>
        <path class="cls-26" d="M94.3,116.43l.29.77-.28.11-.7-1.89.28-.11.29.78,2.27-.84.13.34Z"/>
        <path class="cls-26" d="M93.15,114.16l2.55-1,.12.33-2.55.95Z"/>
        <path class="cls-26" d="M94.5,110.24a1.64,1.64,0,0,1,.37.63,1.27,1.27,0,0,1-.82,1.74,1.37,1.37,0,0,1-1.84-.84,1.64,1.64,0,0,1-.11-.65l.3,0a1.38,1.38,0,0,0,.09.56,1,1,0,0,0,1.42.6,1,1,0,0,0,.66-1.36,1.41,1.41,0,0,0-.3-.5Z"/>
        <path class="cls-26" d="M91.64,110.09l-.12-.33,1.23-.45h0l-.35-.1-1.25-.43-.15-.41,1.43.53,1.1-1.55.14.4-.94,1.3.37.14,1-.36.12.33Z"/>
        <path class="cls-26" d="M91.51,105.57l.37,1,.92-.34-.41-1.1.27-.11.54,1.44-2.56.94L90.13,106l.28-.11.39,1,.8-.3-.36-1Z"/>
        <path class="cls-26" d="M89.79,104.24l.29.77-.28.11-.7-1.89.28-.11.29.78,2.27-.84.12.33Z"/>
      </g>
      <polygon class="cls-26" points="101.08 116.9 98.49 117.06 100.5 115.33 99.68 117.77 98.88 115.6 101.08 116.9"/>
      <polygon class="cls-26" points="97.69 107.73 95.1 107.9 97.11 106.17 96.29 108.61 95.49 106.44 97.69 107.73"/>
      <polygon class="cls-26" points="94.53 99.21 91.94 99.37 93.95 97.64 93.14 100.08 92.33 97.91 94.53 99.21"/>
      <polygon class="cls-26" points="89.67 112.4 88.19 112.49 89.34 111.51 88.87 112.9 88.41 111.66 89.67 112.4"/>
      <polygon class="cls-26" points="90.37 114.3 88.89 114.39 90.04 113.4 89.57 114.8 89.11 113.56 90.37 114.3"/>
      <polygon class="cls-26" points="88.26 108.61 86.78 108.7 87.93 107.72 87.47 109.11 87.01 107.87 88.26 108.61"/>
      <polygon class="cls-26" points="88.97 110.51 87.49 110.6 88.63 109.61 88.17 111.01 87.71 109.77 88.97 110.51"/>
    </g>
    <g>
      <g>
        <path class="cls-2" d="M31.42,123.78a4.58,4.58,0,0,0-9.13-.54v.05a3.12,3.12,0,0,0,0,6.2,3.1,3.1,0,0,0,2.58-.94,4.34,4.34,0,1,0,6.57-4.77Z"/>
        <path class="cls-3" d="M28.72,130.33A4.36,4.36,0,0,1,25,127.15a3.11,3.11,0,0,1-5.33-1.78,3,3,0,0,0-.16.69,3.11,3.11,0,0,0,5.34,2.49,4.34,4.34,0,0,0,8.51-.67,5.63,5.63,0,0,0,0-.71A4.34,4.34,0,0,1,28.72,130.33Z"/>
        <path class="cls-4" d="M28,123.55h-.22v0a1.21,1.21,0,0,0-1.09-1.33,1.22,1.22,0,0,0-1.34,1.09h0a1.53,1.53,0,1,0,1.25,2.38,1.43,1.43,0,0,0,1.11.74,1.45,1.45,0,0,0,1.58-1.29A1.43,1.43,0,0,0,28,123.55Z"/>
      </g>
      <g>
        <path class="cls-2" d="M43.44,131.63a6.22,6.22,0,0,0-6.28-10.72l-.06,0a4.24,4.24,0,1,0-4,6.86,5.9,5.9,0,1,0,10.35,3.82Z"/>
        <path class="cls-3" d="M34,133.53a5.9,5.9,0,0,1,.78-6.6,4.23,4.23,0,0,1-2-7.38,4.22,4.22,0,0,0-2.7,6.06,4.21,4.21,0,0,0,3,2.2,5.9,5.9,0,0,0,7.18,9.1,5.7,5.7,0,0,0,.82-.52A5.89,5.89,0,0,1,34,133.53Z"/>
        <path class="cls-4" d="M41.16,127.63c0-.09-.11-.17-.16-.25h0a1.66,1.66,0,0,0-1.56-2.93h0a2.09,2.09,0,0,0-3.6,2.1,2.07,2.07,0,0,0,1.85,1.1,1.92,1.92,0,0,0,0,1.82,2,2,0,1,0,3.45-1.84Z"/>
      </g>
      <g>
        <path class="cls-7" d="M26.24,127.55a4.2,4.2,0,0,0-.62.06s0,0,0-.06a3.44,3.44,0,0,0-6.88,0v0a4.32,4.32,0,1,0,4.16,6.33,4,4,0,1,0,3.33-6.35Z"/>
        <path class="cls-8" d="M26.24,134a4,4,0,0,1-3.33-1.75,4.33,4.33,0,0,1-8.07-1.2,4.6,4.6,0,0,0-.08.84,4.33,4.33,0,0,0,8.15,2,4,4,0,0,0,7.37-2.3,4.58,4.58,0,0,0-.08-.83A4.05,4.05,0,0,1,26.24,134Z"/>
        <path class="cls-4" d="M23.41,128.47a.92.92,0,0,0-.29,0,1,1,0,0,0-.93-.58,1,1,0,0,0-1,1,1,1,0,0,0,.17.57,1.5,1.5,0,0,0-.92,1.38,1.49,1.49,0,0,0,3,0h0a1.22,1.22,0,0,0,0-2.44Z"/>
      </g>
    </g>
    <g>
      <g>
        <path class="cls-2" d="M55.66,127.12a3.64,3.64,0,0,0-7.25-.43v0a2.48,2.48,0,0,0,0,4.93,2.44,2.44,0,0,0,2-.75,3.45,3.45,0,1,0,5.22-3.79Z"/>
        <path class="cls-3" d="M53.52,132.33a3.47,3.47,0,0,1-3-2.53,2.43,2.43,0,0,1-2.05.75,2.48,2.48,0,0,1-2.19-2.17,2.45,2.45,0,0,0-.13.55,2.49,2.49,0,0,0,2.2,2.73,2.44,2.44,0,0,0,2-.75,3.45,3.45,0,0,0,6.76-.53,2.72,2.72,0,0,0,0-.57A3.46,3.46,0,0,1,53.52,132.33Z"/>
        <path class="cls-4" d="M53,126.93H52.8a1,1,0,0,0-.86-1.07,1,1,0,0,0-1.07.87h0a1.22,1.22,0,0,0-.15,2.43,1.2,1.2,0,0,0,1.14-.54A1.14,1.14,0,1,0,53,126.93Z"/>
      </g>
      <g>
        <path class="cls-2" d="M65.22,133.36a4.94,4.94,0,0,0-5-8.52l0,0A3.37,3.37,0,1,0,57,130.33a4.69,4.69,0,1,0,8.22,3Z"/>
        <path class="cls-3" d="M57.72,134.87a4.71,4.71,0,0,1,.63-5.25,3.35,3.35,0,0,1-1.6-5.86A3.13,3.13,0,0,0,56,124a3.37,3.37,0,0,0,1,6.3,4.68,4.68,0,0,0,5.7,7.23,4.88,4.88,0,0,0,.66-.41A4.7,4.7,0,0,1,57.72,134.87Z"/>
        <path class="cls-4" d="M63.41,130.18a1.27,1.27,0,0,0-.13-.19h0a1.32,1.32,0,0,0-1.24-2.33h0a1.66,1.66,0,1,0-1.39,2.55,1.53,1.53,0,0,0,0,1.44,1.55,1.55,0,0,0,2.1.65A1.57,1.57,0,0,0,63.41,130.18Z"/>
      </g>
      <g>
        <path class="cls-7" d="M51.54,130.12a3.73,3.73,0,0,0-.48,0v0a2.74,2.74,0,0,0-5.47,0v0a3.44,3.44,0,1,0,3.3,5,3.22,3.22,0,1,0,2.65-5Z"/>
        <path class="cls-8" d="M51.54,135.24a3.24,3.24,0,0,1-2.65-1.4,3.43,3.43,0,0,1-6.41-.94,3.52,3.52,0,0,0-.06.66,3.43,3.43,0,0,0,6.47,1.61,3.22,3.22,0,0,0,5.87-1.83,2.84,2.84,0,0,0-.07-.66A3.22,3.22,0,0,1,51.54,135.24Z"/>
        <path class="cls-4" d="M49.3,130.85l-.24,0a.82.82,0,0,0-1.55.36.88.88,0,0,0,.13.46,1.16,1.16,0,0,0-.73,1.09,1.18,1.18,0,1,0,2.36,0h0a1,1,0,0,0,0-1.94Z"/>
      </g>
    </g>
    <g>
      <path class="cls-27" d="M149.12,129.66H118.43a2.21,2.21,0,0,1-2.16-2.26v-2.17a2.21,2.21,0,0,1,2.16-2.25h30.69a2.21,2.21,0,0,1,2.17,2.25v2.17A2.21,2.21,0,0,1,149.12,129.66Z"/>
      <rect class="cls-27" x="144.67" y="123.76" width="6.62" height="12.88" rx="1.81"/>
      <path class="cls-28" d="M118.73,123H59.92v15.61H83.46v-6.06a1.72,1.72,0,0,1,1.68-1.75H93a1.72,1.72,0,0,1,1.67,1.75v6.06h24Z"/>
      <path class="cls-27" d="M117.05,123H58.24v15.61H81.79v-6.06a1.72,1.72,0,0,1,1.67-1.75h7.9A1.72,1.72,0,0,1,93,132.53v6.06h24Z"/>
      <path class="cls-28" d="M79.91,135.14a1.71,1.71,0,0,1-1.67,1.74H61.67A1.71,1.71,0,0,1,60,135.14v-8.71a1.71,1.71,0,0,1,1.67-1.74H78.24a1.71,1.71,0,0,1,1.67,1.74Z"/>
      <path class="cls-29" d="M79.91,135.14a1.67,1.67,0,0,1-1.59,1.74H62.51a1.68,1.68,0,0,1-1.6-1.74v-8.71a1.68,1.68,0,0,1,1.6-1.74H78.32a1.67,1.67,0,0,1,1.59,1.74Z"/>
      <path class="cls-29" d="M79.91,135.14a1.67,1.67,0,0,1-1.59,1.74H62.51a1.68,1.68,0,0,1-1.6-1.74v-8.71a1.68,1.68,0,0,1,1.6-1.74H78.32a1.67,1.67,0,0,1,1.59,1.74Z"/>
      <path class="cls-28" d="M115.09,135.14a1.71,1.71,0,0,1-1.67,1.74H96.85a1.71,1.71,0,0,1-1.67-1.74v-8.71a1.71,1.71,0,0,1,1.67-1.74h16.57a1.71,1.71,0,0,1,1.67,1.74Z"/>
      <path class="cls-30" d="M115.09,135.14a1.66,1.66,0,0,1-1.58,1.74H97.85a1.67,1.67,0,0,1-1.58-1.74v-8.71a1.67,1.67,0,0,1,1.58-1.74h15.66a1.66,1.66,0,0,1,1.58,1.74Z"/>
      <polygon class="cls-31" points="66.5 136.88 62.98 136.88 67.42 124.69 70.94 124.69 66.5 136.88"/>
      <polygon class="cls-31" points="70.29 136.88 68.2 136.88 72.64 124.69 74.73 124.69 70.29 136.88"/>
      <polygon class="cls-31" points="72.12 136.88 71.47 136.88 75.91 124.69 76.56 124.69 72.12 136.88"/>
      <polygon class="cls-32" points="102.42 136.88 98.89 136.88 103.33 124.69 106.86 124.69 102.42 136.88"/>
      <polygon class="cls-32" points="106.2 136.88 104.12 136.88 108.56 124.69 110.64 124.69 106.2 136.88"/>
      <polygon class="cls-32" points="108.03 136.88 107.38 136.88 111.82 124.69 112.47 124.69 108.03 136.88"/>
      <g class="cls-33">
        <polygon class="cls-1" points="58.24 138.59 59.71 138.59 96.87 122.98 58.24 122.98 58.24 138.59"/>
      </g>
      <path class="cls-28" d="M149.91,129.66H119.22a2.21,2.21,0,0,1-2.17-2.26v-2.17a2.21,2.21,0,0,1,2.17-2.25h30.69a2.21,2.21,0,0,1,2.16,2.25v2.17A2.21,2.21,0,0,1,149.91,129.66Z"/>
      <rect class="cls-28" x="145.45" y="123.76" width="6.62" height="12.88" rx="1.81"/>
    </g>
  </g>
</svg>
