<svg id="Layer_1" data-name="Layer 1" xmlns="http://www.w3.org/2000/svg" viewBox="0 0 207.32 168.4">
  <defs>
    <style>
      .cls-1, .cls-22 {
        fill: #fff;
      }

      .cls-2 {
        fill: #fff176;
      }

      .cls-3 {
        fill: #f4e364;
      }

      .cls-4 {
        fill: #f9a825;
      }

      .cls-5 {
        fill: #fff9c5;
      }

      .cls-6 {
        fill: #f4ecb3;
      }

      .cls-7 {
        fill: #fffbde;
      }

      .cls-8 {
        fill: #fcf5ca;
      }

      .cls-9 {
        fill: #ffb54a;
      }

      .cls-10 {
        fill: #d81a1a;
      }

      .cls-11 {
        fill: #eee;
      }

      .cls-12 {
        fill: #fc3030;
      }

      .cls-13 {
        fill: #e0e0e0;
      }

      .cls-14, .cls-21 {
        opacity: 0.1;
      }

      .cls-15 {
        fill: #c6c4c4;
      }

      .cls-16 {
        opacity: 0.05;
      }

      .cls-17, .cls-21 {
        fill: #d6811d;
      }

      .cls-17 {
        opacity: 0.15;
      }

      .cls-18 {
        fill: #f54337;
      }

      .cls-19 {
        fill: #d32f2e;
      }

      .cls-20 {
        fill: #d6d6d6;
      }

      .cls-22 {
        opacity: 0.19;
      }

      .cls-23 {
        fill: #f4bc71;
      }

      .cls-24 {
        fill: #ffcc80;
      }

      .cls-25 {
        fill: #edae48;
      }

      .cls-26 {
        fill: #ca5329;
      }

      .cls-27 {
        fill: #616162;
      }

      .cls-28 {
        fill: #484848;
      }

      .cls-29 {
        fill: #42a5f6;
      }

      .cls-30 {
        fill: #ee534f;
      }

      .cls-31 {
        fill: #66c1ff;
      }

      .cls-32 {
        fill: #e57373;
      }

      .cls-33 {
        opacity: 0.16;
      }
    </style>
  </defs>
  <rect class="cls-1" width="550" height="450"/>
  <g>
    <g>
      <g>
        <path class="cls-2" d="M156,48.21a6.22,6.22,0,0,0-11.28,5.2l0,.06a4.24,4.24,0,1,0,6.45,4.66,5.89,5.89,0,1,0,4.8-9.92Z"/>
        <path class="cls-3" d="M156.92,57.78a5.91,5.91,0,0,1-6.49-1.42,4.23,4.23,0,0,1-7.54,1.28,4.58,4.58,0,0,0,.25.93,4.24,4.24,0,0,0,8-.44,5.89,5.89,0,0,0,9.75-6.25,5.07,5.07,0,0,0-.44-.87A5.9,5.9,0,0,1,156.92,57.78Z"/>
        <path class="cls-4" d="M151.75,50.09l-.26.14v0a1.66,1.66,0,1,0-3.07,1.27h0a2.08,2.08,0,0,0,1.73,3.79,2.12,2.12,0,0,0,1.29-1.73,2,2,0,1,0,.31-3.45Z"/>
      </g>
      <g>
        <path class="cls-2" d="M156,48.21a6.22,6.22,0,0,0-11.28,5.2l0,.06a4.24,4.24,0,1,0,6.45,4.66,5.89,5.89,0,1,0,4.8-9.92Z"/>
        <path class="cls-3" d="M156.92,57.78a5.91,5.91,0,0,1-6.49-1.42,4.23,4.23,0,0,1-7.54,1.28,4.58,4.58,0,0,0,.25.93,4.24,4.24,0,0,0,8-.44,5.89,5.89,0,0,0,9.75-6.25,5.07,5.07,0,0,0-.44-.87A5.9,5.9,0,0,1,156.92,57.78Z"/>
        <path class="cls-4" d="M151.75,50.09l-.26.14v0a1.66,1.66,0,1,0-3.07,1.27h0a2.08,2.08,0,0,0,1.73,3.79,2.12,2.12,0,0,0,1.29-1.73,2,2,0,1,0,.31-3.45Z"/>
      </g>
      <path class="cls-5" d="M154.49,45.35a5.58,5.58,0,0,0-1.3.16,4.57,4.57,0,1,0-7.9,4.55,6.57,6.57,0,1,0,9.08,6.08h.12a5.4,5.4,0,0,0,0-10.79Z"/>
      <path class="cls-5" d="M144.69,46.32a4.42,4.42,0,0,0-.17,1.21,4.21,4.21,0,0,0,0,.5,7.05,7.05,0,0,1,.73-.36A4.56,4.56,0,0,1,144.69,46.32Z"/>
      <path class="cls-6" d="M154.49,53.74h-.12a6.57,6.57,0,0,1-13,1.2,6,6,0,0,0-.12,1.2,6.58,6.58,0,0,0,13.15,0h.12a5.4,5.4,0,0,0,5.39-5.4,5.17,5.17,0,0,0-.14-1.19A5.38,5.38,0,0,1,154.49,53.74Z"/>
      <path class="cls-5" d="M145.29,50.06a4.59,4.59,0,0,1-.73-2,6.56,6.56,0,0,0-3.34,5.71,6.78,6.78,0,0,0,.12,1.2A6.55,6.55,0,0,1,145.29,50.06Z"/>
      <path class="cls-4" d="M150.47,48.87a1.19,1.19,0,0,0-.15.18l0,0a1.3,1.3,0,0,0-1.87,1.82h0a1.64,1.64,0,1,0,2.8.62,1.56,1.56,0,0,0,1.37-.4,1.54,1.54,0,0,0-2.14-2.21Z"/>
      <g>
        <path class="cls-5" d="M148.11,38.27a3.74,3.74,0,0,0-1,.06,3.3,3.3,0,0,0-6.34,1.07,3.25,3.25,0,0,0,.44,1.86,4.75,4.75,0,1,0,6.28,4.79h.09a3.9,3.9,0,0,0,.48-7.78Z"/>
        <path class="cls-5" d="M141,38.54a3.45,3.45,0,0,0-.17.86,2.17,2.17,0,0,0,0,.36,4.35,4.35,0,0,1,.54-.22A3.56,3.56,0,0,1,141,38.54Z"/>
        <path class="cls-6" d="M147.73,44.33h-.08a4.75,4.75,0,0,1-9.46.29,4.68,4.68,0,0,0-.13.86,4.75,4.75,0,0,0,9.48.58h.09a3.9,3.9,0,0,0,4.13-3.65,3.58,3.58,0,0,0,0-.87A3.9,3.9,0,0,1,147.73,44.33Z"/>
        <path class="cls-5" d="M141.26,41.26a3.16,3.16,0,0,1-.43-1.5,4.76,4.76,0,0,0-2.67,4,6.22,6.22,0,0,0,0,.87A4.79,4.79,0,0,1,141.26,41.26Z"/>
        <path class="cls-4" d="M145.37,41.24a1.14,1.14,0,0,0-.15.16v0A1.2,1.2,0,1,0,143.39,43h0a1.51,1.51,0,1,0,2.54.73,1.41,1.41,0,1,0-.56-2.44Z"/>
      </g>
      <g>
        <path class="cls-7" d="M140.48,32.21a4.07,4.07,0,0,0-.61,0v0a3.44,3.44,0,1,0-6.87,0v0a4.32,4.32,0,1,0,4.15,6.32,4,4,0,1,0,3.33-6.34Z"/>
        <path class="cls-8" d="M140.48,38.64a4,4,0,0,1-3.33-1.75,4.32,4.32,0,0,1-8.06-1.19,3.83,3.83,0,0,0-.08.83,4.32,4.32,0,0,0,8.14,2,4,4,0,0,0,7.38-2.29,3.86,3.86,0,0,0-.09-.84A4,4,0,0,1,140.48,38.64Z"/>
        <path class="cls-4" d="M137.66,33.12a1.45,1.45,0,0,0-.3,0,1,1,0,1,0-1.78,1,1.48,1.48,0,1,0,2,1.37h0a1.22,1.22,0,0,0,0-2.44Z"/>
      </g>
      <g>
        <path class="cls-2" d="M115.91,37.33a4.58,4.58,0,0,0-8.82,2.4.43.43,0,0,0,0,.05,3.12,3.12,0,0,0,2,5.88A3.07,3.07,0,0,0,111.21,44a4.34,4.34,0,1,0,4.7-6.62Z"/>
        <path class="cls-3" d="M115.45,44.39a4.33,4.33,0,0,1-4.54-1.82,3.11,3.11,0,0,1-5.63,0,3.33,3.33,0,0,0,.07.7,3.11,3.11,0,0,0,3.72,2.37A3.07,3.07,0,0,0,111.21,44a4.34,4.34,0,0,0,7.84-3.36,3.83,3.83,0,0,0-.21-.68A4.33,4.33,0,0,1,115.45,44.39Z"/>
        <path class="cls-9" d="M112.63,38.19l-.21.06v0a1.22,1.22,0,0,0-2.38.55h0A1.53,1.53,0,1,0,112,40.65a1.45,1.45,0,0,0,1.29.34,1.44,1.44,0,1,0-.64-2.8Z"/>
      </g>
      <g>
        <path class="cls-2" d="M130.82,36.42a4.57,4.57,0,0,0-9.12-.55.13.13,0,0,1,0,.06,3.12,3.12,0,0,0,0,6.2,3.15,3.15,0,0,0,2.58-.94,4.34,4.34,0,1,0,6.56-4.77Z"/>
        <path class="cls-3" d="M128.13,43a4.34,4.34,0,0,1-3.72-3.17A3.11,3.11,0,0,1,119.07,38a3.85,3.85,0,0,0-.16.69,3.12,3.12,0,0,0,5.35,2.5,4.34,4.34,0,0,0,8.5-.67,4.39,4.39,0,0,0,0-.72A4.34,4.34,0,0,1,128.13,43Z"/>
        <path class="cls-4" d="M127.44,36.18h-.21v0a1.22,1.22,0,0,0-1.1-1.34,1.21,1.21,0,0,0-1.33,1.09h0A1.53,1.53,0,1,0,126,38.3a1.44,1.44,0,1,0,1.4-2.12Z"/>
      </g>
      <g>
        <path class="cls-5" d="M118.61,50.11a5.89,5.89,0,0,0-1-.77,4.57,4.57,0,1,0-8.86-2.14,6.58,6.58,0,1,0,2.4,10.66h0l.08.09a5.4,5.4,0,1,0,7.43-7.83Z"/>
        <path class="cls-5" d="M110.83,44.08a4.48,4.48,0,0,0-1,.75l-.31.39a6.91,6.91,0,0,1,.77.25A4.9,4.9,0,0,1,110.83,44.08Z"/>
        <path class="cls-6" d="M112.83,56.2l-.08-.08h0A6.57,6.57,0,0,1,102.47,48a6.69,6.69,0,0,0-.91.79,6.57,6.57,0,0,0,9.54,9h0l.08.09a5.4,5.4,0,0,0,7.63-.2,5.47,5.47,0,0,0,.72-1A5.38,5.38,0,0,1,112.83,56.2Z"/>
        <path class="cls-5" d="M108.7,47.2a4.5,4.5,0,0,1,.87-2,6.58,6.58,0,0,0-6.36,1.85,7.36,7.36,0,0,0-.74,1A6.57,6.57,0,0,1,108.7,47.2Z"/>
        <path class="cls-4" d="M113.06,50.83a2.85,2.85,0,0,0-.29,0v0a1.66,1.66,0,1,0-3.32,0h0a2.09,2.09,0,0,0,.21,4.17,2.08,2.08,0,0,0,1.83-1.14A2,2,0,0,0,115,52.76,2,2,0,0,0,113.06,50.83Z"/>
      </g>
      <g>
        <path class="cls-2" d="M130.05,50.07a6.21,6.21,0,0,0-12.4.6v.07a4.24,4.24,0,1,0,4.23,6.73,5.9,5.9,0,1,0,8.17-7.4Z"/>
        <path class="cls-3" d="M127.37,59.3a5.89,5.89,0,0,1-5.49-3.74,4.23,4.23,0,0,1-7.47-1.63,4.19,4.19,0,0,0-.11,1,4.23,4.23,0,0,0,7.58,2.59,5.9,5.9,0,0,0,11.39-2.15,6.14,6.14,0,0,0-.08-1A5.9,5.9,0,0,1,127.37,59.3Z"/>
        <path class="cls-4" d="M125.45,50.24a1.36,1.36,0,0,0-.29,0v0a1.66,1.66,0,0,0-3.32,0h0a2.08,2.08,0,0,0,.19,4.16,2.06,2.06,0,0,0,1.84-1.13,2,2,0,1,0,1.58-3.07Z"/>
      </g>
      <g>
        <path class="cls-2" d="M139.68,50.31a6.22,6.22,0,0,0-6.28-10.72l-.06,0a4.24,4.24,0,1,0-4,6.87,5.9,5.9,0,1,0,10.35,3.82Z"/>
        <path class="cls-3" d="M130.25,52.21a5.88,5.88,0,0,1,.78-6.6,4.23,4.23,0,0,1-2-7.38,4.22,4.22,0,0,0-2.7,6.06,4.21,4.21,0,0,0,3,2.2,5.9,5.9,0,0,0,7.18,9.1,5.7,5.7,0,0,0,.82-.52A5.89,5.89,0,0,1,130.25,52.21Z"/>
        <path class="cls-4" d="M137.39,46.31a1.32,1.32,0,0,0-.16-.25h0a1.66,1.66,0,0,0-1.56-2.93h0a2.09,2.09,0,1,0-1.75,3.2,1.92,1.92,0,0,0,0,1.82,2,2,0,0,0,3.44-1.84Z"/>
      </g>
      <g>
        <path class="cls-7" d="M141.58,49.43a4.4,4.4,0,0,0-.73.06v-.06a4.14,4.14,0,1,0-8.28,0v0a5.21,5.21,0,1,0,5,7.62,4.87,4.87,0,1,0,4-7.64Z"/>
        <path class="cls-8" d="M141.58,57.17a4.87,4.87,0,0,1-4-2.1,5.21,5.21,0,0,1-9.71-1.44,4.81,4.81,0,0,0-.1,1,5.2,5.2,0,0,0,9.81,2.43,4.87,4.87,0,0,0,8.89-2.77,4.71,4.71,0,0,0-.11-1A4.87,4.87,0,0,1,141.58,57.17Z"/>
        <path class="cls-9" d="M138.18,50.53a2,2,0,0,0-.35,0,1.26,1.26,0,0,0-1.12-.69,1.24,1.24,0,0,0-1,1.93,1.79,1.79,0,1,0,2.47,1.66h0a1.47,1.47,0,0,0,0-2.94Z"/>
      </g>
      <g>
        <path class="cls-7" d="M125.64,40.19a4.07,4.07,0,0,0-.61.05v-.05a3.44,3.44,0,1,0-6.87,0v0a4.32,4.32,0,1,0,4.15,6.32,4,4,0,1,0,3.33-6.34Z"/>
        <path class="cls-8" d="M125.64,46.62a4,4,0,0,1-3.33-1.75,4.32,4.32,0,0,1-8.06-1.19,3.84,3.84,0,0,0-.09.83,4.32,4.32,0,0,0,8.15,2,4,4,0,0,0,7.38-2.29,3.86,3.86,0,0,0-.09-.84A4,4,0,0,1,125.64,46.62Z"/>
        <path class="cls-4" d="M122.81,41.1a1.45,1.45,0,0,0-.29,0,1,1,0,1,0-1.78,1A1.49,1.49,0,0,0,121.3,45a1.49,1.49,0,0,0,1.49-1.49h0a1.22,1.22,0,0,0,0-2.44Z"/>
      </g>
      <g>
        <path class="cls-2" d="M141.59,49.34a6.22,6.22,0,0,0-11.28,5.2l0,.06A4.23,4.23,0,0,0,134.29,62a4.2,4.2,0,0,0,2.49-2.78,5.9,5.9,0,1,0,4.81-9.92Z"/>
        <path class="cls-3" d="M142.56,58.91a5.89,5.89,0,0,1-6.49-1.42,4.23,4.23,0,0,1-7.54,1.28,4.58,4.58,0,0,0,.25.93,4.23,4.23,0,0,0,8-.44A5.9,5.9,0,0,0,146.54,53a5.07,5.07,0,0,0-.44-.87A5.89,5.89,0,0,1,142.56,58.91Z"/>
        <path class="cls-4" d="M137.39,51.22l-.26.14v0a1.66,1.66,0,1,0-3.07,1.26h0a2.09,2.09,0,1,0,3,2.06,2,2,0,0,0,1.81.17,2,2,0,0,0-1.49-3.62Z"/>
      </g>
      <g>
        <path class="cls-2" d="M141.59,49.34a6.22,6.22,0,0,0-11.28,5.2l0,.06A4.23,4.23,0,0,0,134.29,62a4.2,4.2,0,0,0,2.49-2.78,5.9,5.9,0,1,0,4.81-9.92Z"/>
        <path class="cls-3" d="M142.56,58.91a5.89,5.89,0,0,1-6.49-1.42,4.23,4.23,0,0,1-7.54,1.28,4.58,4.58,0,0,0,.25.93,4.23,4.23,0,0,0,8-.44A5.9,5.9,0,0,0,146.54,53a5.07,5.07,0,0,0-.44-.87A5.89,5.89,0,0,1,142.56,58.91Z"/>
        <path class="cls-4" d="M137.39,51.22l-.26.14v0a1.66,1.66,0,1,0-3.07,1.26h0a2.09,2.09,0,1,0,3,2.06,2,2,0,0,0,1.81.17,2,2,0,0,0-1.49-3.62Z"/>
      </g>
      <g>
        <path class="cls-5" d="M140.12,46.48a5,5,0,0,0-1.29.17,4.57,4.57,0,0,0-8.67,2,4.47,4.47,0,0,0,.77,2.53A6.57,6.57,0,1,0,140,57.27h.12a5.4,5.4,0,1,0,0-10.79Z"/>
        <path class="cls-5" d="M130.33,47.45a4.42,4.42,0,0,0-.17,1.21,4,4,0,0,0,0,.5c.23-.13.48-.25.73-.36A4.56,4.56,0,0,1,130.33,47.45Z"/>
        <path class="cls-6" d="M140.12,54.88H140a6.57,6.57,0,0,1-13,1.19,6.78,6.78,0,0,0-.11,1.2,6.57,6.57,0,1,0,13.14,0h.12a5.4,5.4,0,0,0,5.4-5.4,5.17,5.17,0,0,0-.14-1.19A5.4,5.4,0,0,1,140.12,54.88Z"/>
        <path class="cls-5" d="M130.93,51.19a4.43,4.43,0,0,1-.73-2,6.57,6.57,0,0,0-3.34,5.72,6.75,6.75,0,0,0,.11,1.19A6.6,6.6,0,0,1,130.93,51.19Z"/>
        <path class="cls-4" d="M136.6,50.82a2.09,2.09,0,0,0-.2.22v0A1.66,1.66,0,1,0,134,53.34h0a2.09,2.09,0,0,0,3,2.88,2.07,2.07,0,0,0,.55-2.08,2,2,0,1,0-1-3.32Z"/>
      </g>
      <g>
        <path class="cls-5" d="M133.74,39.4a4.17,4.17,0,0,0-.94.06,3.3,3.3,0,0,0-6.34,1.07,3.25,3.25,0,0,0,.44,1.86,4.75,4.75,0,1,0,6.28,4.79h.09a3.9,3.9,0,1,0,.47-7.79Z"/>
        <path class="cls-5" d="M126.63,39.67a3.45,3.45,0,0,0-.17.86c0,.13,0,.25,0,.37a3.76,3.76,0,0,1,.55-.23A3.19,3.19,0,0,1,126.63,39.67Z"/>
        <path class="cls-6" d="M133.37,45.46h-.08a4.75,4.75,0,0,1-9.46.29,4.82,4.82,0,0,0-.14.86,4.75,4.75,0,0,0,9.49.58h.09a3.91,3.91,0,0,0,4.13-3.66,4.16,4.16,0,0,0-.05-.87A3.91,3.91,0,0,1,133.37,45.46Z"/>
        <path class="cls-5" d="M126.9,42.39a3.28,3.28,0,0,1-.44-1.49,4.74,4.74,0,0,0-2.66,4,5,5,0,0,0,0,.87A4.77,4.77,0,0,1,126.9,42.39Z"/>
        <path class="cls-4" d="M131,42.38a.71.71,0,0,0-.15.15v0a1.21,1.21,0,0,0-1.7-.12,1.19,1.19,0,0,0-.12,1.69h0a1.51,1.51,0,1,0,2.54.73,1.41,1.41,0,1,0-.56-2.43Z"/>
      </g>
      <g>
        <path class="cls-5" d="M121.93,24.77a3.66,3.66,0,0,0-.94.06,3.3,3.3,0,0,0-6.34,1.07,3.25,3.25,0,0,0,.44,1.86,4.75,4.75,0,1,0,6.28,4.79h.08a3.9,3.9,0,0,0,.48-7.78Z"/>
        <path class="cls-5" d="M114.82,25a3.05,3.05,0,0,0-.17.86c0,.12,0,.24,0,.36.18-.08.36-.16.54-.22A3.54,3.54,0,0,1,114.82,25Z"/>
        <path class="cls-6" d="M121.56,30.83h-.08a4.75,4.75,0,0,1-9.46.29,4.68,4.68,0,0,0-.14.86,4.75,4.75,0,0,0,9.49.58h.08a3.9,3.9,0,0,0,4.13-3.65,4.17,4.17,0,0,0,0-.87A3.91,3.91,0,0,1,121.56,30.83Z"/>
        <path class="cls-5" d="M115.09,27.76a3.28,3.28,0,0,1-.44-1.5,4.75,4.75,0,0,0-2.66,4,4.2,4.2,0,0,0,0,.87A4.77,4.77,0,0,1,115.09,27.76Z"/>
        <path class="cls-4" d="M119.2,27.74a.75.75,0,0,0-.15.16l0,0a1.2,1.2,0,1,0-1.81,1.57h0a1.51,1.51,0,1,0,2.54.73,1.44,1.44,0,0,0,1.28-.29,1.41,1.41,0,0,0-1.84-2.15Z"/>
      </g>
      <g>
        <path class="cls-7" d="M126.12,33.34a4.07,4.07,0,0,0-.61,0v0a3.44,3.44,0,0,0-6.88,0v0a4.32,4.32,0,1,0,4.15,6.33,4,4,0,1,0,3.33-6.35Z"/>
        <path class="cls-8" d="M126.12,39.77A4,4,0,0,1,122.79,38a4.32,4.32,0,0,1-8.07-1.19,4.58,4.58,0,0,0-.08.83,4.33,4.33,0,0,0,8.15,2,4.05,4.05,0,0,0,7.38-2.3,3.7,3.7,0,0,0-.09-.83A4.05,4.05,0,0,1,126.12,39.77Z"/>
        <path class="cls-4" d="M123.29,34.26a1.36,1.36,0,0,0-.29,0,1,1,0,0,0-2,.46,1,1,0,0,0,.18.57,1.49,1.49,0,0,0,.56,2.86,1.49,1.49,0,0,0,1.49-1.49h0a1.22,1.22,0,1,0,0-2.43Z"/>
      </g>
      <g>
        <path class="cls-2" d="M100.6,38.46a4.58,4.58,0,0,0-8.82,2.41.43.43,0,0,1,0,.05,3.12,3.12,0,1,0,4.11,4.16,4.34,4.34,0,1,0,4.7-6.62Z"/>
        <path class="cls-3" d="M100.14,45.53a4.36,4.36,0,0,1-4.54-1.82,3.12,3.12,0,0,1-5.63,0,3.49,3.49,0,0,0,.07.71,3.11,3.11,0,0,0,5.86.65,4.34,4.34,0,0,0,7.84-3.36,4.11,4.11,0,0,0-.21-.68A4.35,4.35,0,0,1,100.14,45.53Z"/>
        <path class="cls-9" d="M97.32,39.32l-.21.06h0a1.22,1.22,0,1,0-2.38.54h0a1.53,1.53,0,1,0,1.94,1.86,1.44,1.44,0,1,0,.65-2.46Z"/>
      </g>
      <g>
        <path class="cls-2" d="M111.16,34.18a4.57,4.57,0,0,0-9,1.27.43.43,0,0,0,0,0,3.12,3.12,0,0,0,1.21,6.08,3.08,3.08,0,0,0,2.34-1.43,4.34,4.34,0,1,0,5.49-6Z"/>
        <path class="cls-3" d="M109.82,41.13a4.34,4.34,0,0,1-4.27-2.38,3.12,3.12,0,0,1-5.59-.69,3.26,3.26,0,0,0,0,.7,3.12,3.12,0,0,0,3.39,2.82,3.08,3.08,0,0,0,2.34-1.43,4.34,4.34,0,0,0,8.2-2.34,4.21,4.21,0,0,0-.12-.71A4.35,4.35,0,0,1,109.82,41.13Z"/>
        <path class="cls-9" d="M107.8,34.61l-.21,0v0a1.22,1.22,0,0,0-2.43.25h0A1.54,1.54,0,1,0,106.85,37a1.44,1.44,0,0,0,2.53-1.07A1.45,1.45,0,0,0,107.8,34.61Z"/>
      </g>
      <g>
        <path class="cls-2" d="M116.46,37.55a4.57,4.57,0,0,0-9.12-.54.07.07,0,0,0,0,.05,3.12,3.12,0,1,0,2.57,5.26,4.34,4.34,0,1,0,6.56-4.77Z"/>
        <path class="cls-3" d="M113.77,44.09a4.32,4.32,0,0,1-3.72-3.17,3.11,3.11,0,0,1-5.34-1.79,3.12,3.12,0,0,0,5.19,3.19,4.33,4.33,0,0,0,8.51-1.39A4.32,4.32,0,0,1,113.77,44.09Z"/>
        <path class="cls-4" d="M113.08,37.31a.81.81,0,0,0-.22,0v0a1.22,1.22,0,1,0-2.42-.24h0a1.53,1.53,0,1,0,1.24,2.39,1.44,1.44,0,1,0,1.4-2.13Z"/>
      </g>
      <path class="cls-5" d="M103.3,51.25a5.26,5.26,0,0,0-1.06-.78,4.56,4.56,0,1,0-8.85-2.14A6.58,6.58,0,1,0,95.79,59h0l.08.09a5.39,5.39,0,1,0,7.43-7.82Z"/>
      <path class="cls-5" d="M95.52,45.21a4.23,4.23,0,0,0-1,.76,4.08,4.08,0,0,0-.31.39,5.28,5.28,0,0,1,.77.24A4.71,4.71,0,0,1,95.52,45.21Z"/>
      <path class="cls-6" d="M97.52,57.34l-.08-.09h0a6.57,6.57,0,0,1-10.27-8.1,6.14,6.14,0,0,0-.91.79A6.57,6.57,0,0,0,95.79,59h0l.08.09a5.4,5.4,0,0,0,7.63-.2,5.47,5.47,0,0,0,.72-1A5.4,5.4,0,0,1,97.52,57.34Z"/>
      <path class="cls-5" d="M93.39,48.33a4.42,4.42,0,0,1,.87-2A6.54,6.54,0,0,0,87.9,48.2a7.36,7.36,0,0,0-.74.95A6.57,6.57,0,0,1,93.39,48.33Z"/>
      <path class="cls-4" d="M96,50.72l-.22,0v0a1.21,1.21,0,0,0-2.41,0h0A1.51,1.51,0,1,0,94.86,53a1.45,1.45,0,0,0,1.17.6,1.42,1.42,0,0,0,0-2.84Z"/>
      <g>
        <path class="cls-2" d="M115.69,51.2a6.22,6.22,0,0,0-12.41.6s0,.05,0,.07a4.24,4.24,0,1,0,4.23,6.73,5.9,5.9,0,1,0,8.17-7.4Z"/>
        <path class="cls-3" d="M113,60.43a5.89,5.89,0,0,1-5.49-3.74,4.23,4.23,0,0,1-7.47-1.63,4.19,4.19,0,0,0-.11.95,4.23,4.23,0,0,0,7.58,2.59,5.9,5.9,0,0,0,11.39-2.15,6.24,6.24,0,0,0-.08-1A5.9,5.9,0,0,1,113,60.43Z"/>
        <path class="cls-4" d="M111.09,51.37l-.3,0v0a1.66,1.66,0,0,0-3.32,0h0a2.08,2.08,0,1,0,2,3,2,2,0,1,0,1.58-3.08Z"/>
      </g>
      <g>
        <path class="cls-2" d="M125.31,51.44A6.22,6.22,0,0,0,119,40.72l-.06,0a4.24,4.24,0,1,0-4,6.86,5.9,5.9,0,1,0,10.34,3.82Z"/>
        <path class="cls-3" d="M115.89,53.34a5.88,5.88,0,0,1,.78-6.6,4.24,4.24,0,0,1-2-7.38,4.4,4.4,0,0,0-.89.34A4.23,4.23,0,0,0,115,47.62a5.9,5.9,0,0,0,7.18,9.1,6.31,6.31,0,0,0,.82-.52A5.88,5.88,0,0,1,115.89,53.34Z"/>
        <path class="cls-4" d="M123,47.44a2.13,2.13,0,0,0-.16-.25h0a1.66,1.66,0,1,0-1.56-2.93h0a2.09,2.09,0,1,0-1.76,3.2,2,2,0,0,0,2.66,2.63A2,2,0,0,0,123,47.44Z"/>
      </g>
      <path class="cls-7" d="M127.22,50.56a6,6,0,0,0-.74.06s0,0,0-.06a4.15,4.15,0,0,0-8.29,0v0a5.21,5.21,0,1,0,5,7.62,4.87,4.87,0,1,0,4-7.64Z"/>
      <path class="cls-8" d="M127.22,58.31a4.88,4.88,0,0,1-4-2.11,5.21,5.21,0,0,1-9.72-1.44,5.58,5.58,0,0,0-.09,1,5.2,5.2,0,0,0,9.81,2.43,4.87,4.87,0,0,0,8.89-2.76,4.81,4.81,0,0,0-.11-1A4.87,4.87,0,0,1,127.22,58.31Z"/>
      <path class="cls-9" d="M122.75,53.05a1.09,1.09,0,0,0-.25,0,.87.87,0,0,0-1.66.38A.91.91,0,0,0,121,54a1.26,1.26,0,1,0,1.74,1.16h0a1,1,0,1,0,0-2.07Z"/>
      <g>
        <path class="cls-7" d="M111.28,41.32a4.07,4.07,0,0,0-.61,0v0a3.44,3.44,0,0,0-6.88,0v0A4.32,4.32,0,1,0,108,47.67a4,4,0,1,0,3.33-6.35Z"/>
        <path class="cls-8" d="M111.28,47.75A4,4,0,0,1,108,46a4.32,4.32,0,0,1-8.07-1.19,4.6,4.6,0,0,0-.08.84,4.33,4.33,0,0,0,8.15,2,4,4,0,0,0,7.37-2.3,4.41,4.41,0,0,0-.08-.83A4,4,0,0,1,111.28,47.75Z"/>
        <path class="cls-4" d="M108.45,42.24a1.36,1.36,0,0,0-.29,0,1,1,0,0,0-2,.46,1,1,0,0,0,.18.57,1.49,1.49,0,0,0,.56,2.86,1.49,1.49,0,0,0,1.49-1.49h0a1.22,1.22,0,1,0,0-2.43Z"/>
      </g>
      <path class="cls-10" d="M93.55,62H85.09a5.46,5.46,0,0,0,.2,1.22l12.48,81.47h5.64q-4.87-40.86-9.74-81.74A4.84,4.84,0,0,1,93.55,62Z"/>
      <path class="cls-11" d="M127.37,62,126,144.68h5.64L135.83,62Z"/>
      <path class="cls-12" d="M135.83,62l-4.23,82.69h5.64q3.52-41.34,7-82.69Z"/>
      <path class="cls-12" d="M118.92,62q.7,41.34,1.4,82.69H126L127.37,62Z"/>
      <path class="cls-13" d="M144.28,62q-3.53,41.34-7,82.69h5.64q4.88-40.86,9.74-81.73a5,5,0,0,0,.12-1Z"/>
      <path class="cls-10" d="M152.74,62a5,5,0,0,1-.12,1q-4.87,40.86-9.74,81.73h5.64L161,63.22a5.09,5.09,0,0,0,.19-1.23Z"/>
      <path class="cls-11" d="M110.46,62l4.23,82.69h5.63q-.69-41.34-1.4-82.69Z"/>
      <path class="cls-12" d="M102,62q3.51,41.34,7,82.69h5.64L110.46,62Z"/>
      <path class="cls-13" d="M93.55,62a4.84,4.84,0,0,0,.12.95q4.86,40.88,9.74,81.74h5.64q-3.52-41.34-7-82.69Z"/>
      <path class="cls-14" d="M92.85,112.59l4.92,32.09h50.75c.49-3.22,1-6.45,1.48-9.68a63.35,63.35,0,0,1-8.78.61A61.23,61.23,0,0,1,92.85,112.59Z"/>
      <rect class="cls-11" x="97.31" y="142.93" width="51.64" height="3.5"/>
      <rect class="cls-15" x="134.3" y="142.93" width="14.66" height="3.5"/>
      <rect class="cls-15" x="97.31" y="142.93" width="15.21" height="3.5"/>
      <g class="cls-16">
        <polygon class="cls-1" points="105.85 61.99 110.46 142.93 124.03 142.93 124.03 61.99 105.85 61.99"/>
      </g>
      <path class="cls-17" d="M161.19,62H86c-.87,0-.87.12-.84.36,3.33,27.53,23.15,47.4,50.71,47.4a52.18,52.18,0,0,0,18.56-3.38q3.3-21.57,6.61-43.15A5.09,5.09,0,0,0,161.19,62Z"/>
      <rect class="cls-15" x="85.09" y="57.51" width="76.1" height="4.48"/>
      <rect class="cls-11" x="102.16" y="57.51" width="41.87" height="4.48"/>
    </g>
    <g>
      <g>
        <path class="cls-18" d="M67.46,60.72H64.53V51.78a9.56,9.56,0,0,1,6.73-9.16l14.59-4.57-.59,3.29L72.14,45.42a6.64,6.64,0,0,0-4.68,6.36Z"/>
        <path class="cls-19" d="M67.46,51.78a6.64,6.64,0,0,1,4.68-6.36l13.12-4.08.31-1.76-12.84,4A9.55,9.55,0,0,0,66,52.76v8h1.46Z"/>
      </g>
      <path class="cls-15" d="M81.06,62.46a5.68,5.68,0,0,1-5.69,5.68H56.94a5.68,5.68,0,0,1-5.68-5.68h0a5.68,5.68,0,0,1,5.68-5.68H75.37a5.68,5.68,0,0,1,5.69,5.68Z"/>
      <path class="cls-20" d="M75.19,62.46c0,3.14-1.52,5.68-3.4,5.68h-11c-1.88,0-3.4-2.54-3.4-5.68h0c0-3.14,1.52-5.68,3.4-5.68h11c1.88,0,3.4,2.54,3.4,5.68Z"/>
      <polygon class="cls-10" points="83.99 140.41 47.81 140.41 42.92 66.1 88.88 66.1 83.99 140.41"/>
      <polygon class="cls-12" points="52.7 66.1 57.59 140.41 73.72 140.41 78.61 66.1 52.7 66.1"/>
      <rect class="cls-11" x="47.81" y="140.41" width="36.18" height="2.93"/>
      <rect class="cls-13" x="73.72" y="140.41" width="10.27" height="2.93"/>
      <rect class="cls-13" x="47.81" y="140.41" width="9.53" height="2.93"/>
      <path class="cls-13" d="M84.72,60.72H47.32a5.62,5.62,0,0,0-5.61,5.38H90.33A5.62,5.62,0,0,0,84.72,60.72Z"/>
      <path class="cls-11" d="M75.91,60.72H55.2c-1.67,0-3,2.39-3.1,5.38H79C78.94,63.11,77.58,60.72,75.91,60.72Z"/>
      <g class="cls-16">
        <polygon points="42.92 66.1 43.18 70.01 88.62 70.01 88.88 66.1 42.92 66.1"/>
      </g>
      <path class="cls-14" d="M45.41,104l2.4,36.45H84l.24-3.67C66.88,134.77,52.26,121.86,45.41,104Z"/>
      <path class="cls-19" d="M42.92,66.1l0,.19c0-.06,0-.13,0-.19Z"/>
      <g class="cls-16">
        <polygon class="cls-1" points="58.13 66.1 62.23 140.41 67.37 140.41 65.66 66.1 58.13 66.1"/>
      </g>
      <path class="cls-21" d="M42.92,66.1l.95,11.53c5.84,16.72,21.7,31.56,40.36,31.56.61,0,1.21,0,1.82,0l2.83-43Z"/>
      <path class="cls-22" d="M84.72,60.72H47.32a5.59,5.59,0,0,0-4.78,2.69h47A5.62,5.62,0,0,0,84.72,60.72Z"/>
      <path class="cls-22" d="M75.37,56.78H56.94A5.69,5.69,0,0,0,52.42,59H79.9A5.7,5.7,0,0,0,75.37,56.78Z"/>
    </g>
    <g>
      <path class="cls-23" d="M150.29,95.33l15.51,7.33a5.42,5.42,0,0,0,2.58,7.2l-15.84,33.51a5.4,5.4,0,0,0-7.2,2.57l-15.51-7.33a5.42,5.42,0,0,0-2.58-7.2L143.1,97.9A5.39,5.39,0,0,0,150.29,95.33Z"/>
      <path class="cls-24" d="M149.64,95l15.51,7.33a5.42,5.42,0,0,0,2.58,7.2l-15.85,33.51a5.39,5.39,0,0,0-7.19,2.57l-15.51-7.33a5.42,5.42,0,0,0-2.58-7.2l15.84-33.51A5.4,5.4,0,0,0,149.64,95Z"/>
      <path class="cls-25" d="M144.48,101.54a1.81,1.81,0,0,1,2.4-.86L162.3,108a1.81,1.81,0,0,1,.86,2.4L149.64,139a1.8,1.8,0,0,1-2.4.86l-15.42-7.29a1.81,1.81,0,0,1-.86-2.4Z"/>
      <path class="cls-26" d="M148,140.45a2.11,2.11,0,0,1-1-.22l-15.43-7.29a2.26,2.26,0,0,1-1.07-3l13.52-28.6a2.31,2.31,0,0,1,3-1.07l15.43,7.29a2.28,2.28,0,0,1,1.16,1.28,2.26,2.26,0,0,1-.09,1.73l-13.52,28.59A2.27,2.27,0,0,1,148,140.45ZM146.11,101a1.37,1.37,0,0,0-1.22.77l-13.52,28.6a1.35,1.35,0,0,0,.65,1.79l15.42,7.29a1.37,1.37,0,0,0,1.79-.64l13.52-28.59a1.36,1.36,0,0,0,.05-1,1.33,1.33,0,0,0-.69-.76l-15.43-7.3A1.4,1.4,0,0,0,146.11,101Z"/>
      <g>
        <path class="cls-26" d="M139.93,127.44a2.4,2.4,0,0,1-.27,1,1.8,1.8,0,0,1-2.57.89,1.93,1.93,0,0,1-1-2.69,2.13,2.13,0,0,1,.54-.75l.32.28a1.9,1.9,0,0,0-.48.64,1.43,1.43,0,0,0,.8,2,1.4,1.4,0,0,0,2-.67,2,2,0,0,0,.2-.8Z"/>
        <path class="cls-26" d="M137.46,124l3.48,1.64-.21.45-3.48-1.64Z"/>
        <path class="cls-26" d="M141.73,123.94l-3.48-1.65.23-.49,2.29-.28a12.57,12.57,0,0,1,1.42-.09h0c-.48-.18-.91-.37-1.45-.63l-1.46-.69.2-.42,3.48,1.65-.21.45-2.29.27a12.67,12.67,0,0,1-1.47.1v0c.45.18.87.37,1.45.64l1.49.71Z"/>
        <path class="cls-26" d="M143,117.09l-.64,1.35,1.25.59.72-1.5.37.17-.92,2L140.27,118l.89-1.88.37.17-.67,1.43,1.1.53.64-1.36Z"/>
        <path class="cls-26" d="M145.22,112.59c-.49-.21-1.09-.45-1.52-.66h0c.35.31.72.66,1.11,1.07l1.4,1.41-.16.34-1.92-.22c-.57-.07-1.09-.14-1.55-.24h0l1.51.8,1.44.8-.2.43L142,114.45l.27-.58,2,.21c.5,0,.94.12,1.34.2v0a13,13,0,0,1-1-.92l-1.39-1.41.27-.58,3.58,1.43-.21.44Z"/>
        <path class="cls-26" d="M146.89,110.18l.93.88-.22.46-2.93-2.82.26-.55,4,.46-.22.48-1.27-.14Zm.19-1.31-1.16-.13c-.27,0-.5-.08-.72-.12h0c.18.15.37.31.55.48l.84.81Z"/>
      </g>
      <rect class="cls-26" x="131.94" y="119.85" width="30.81" height="0.72" transform="translate(-24.31 202.02) rotate(-64.69)"/>
      <g>
        <path class="cls-26" d="M146,128l-.38.8-.29-.13.92-1.95.29.13-.38.81,2.34,1.11-.16.34Z"/>
        <path class="cls-26" d="M146.86,125.38l2.63,1.24-.16.34-2.63-1.24Z"/>
        <path class="cls-26" d="M150.87,123.49a1.82,1.82,0,0,1-.21.75,1.35,1.35,0,0,1-1.94.67,1.45,1.45,0,0,1-.74-2,1.61,1.61,0,0,1,.42-.57l.24.22a1.33,1.33,0,0,0-.37.47,1.09,1.09,0,0,0,.61,1.55,1.06,1.06,0,0,0,1.53-.52,1.46,1.46,0,0,0,.16-.6Z"/>
        <path class="cls-26" d="M148.84,121.19l.16-.34,1.27.6h0l-.18-.34-.61-1.27.2-.43.67,1.49,2-.32-.19.41-1.7.25.17.39,1,.47-.16.34Z"/>
        <path class="cls-26" d="M152.2,117.7l-.49,1,.95.45.54-1.14.29.13-.7,1.48-2.64-1.24.68-1.43.28.14-.51,1.08.83.39.49-1Z"/>
        <path class="cls-26" d="M151.93,115.39l-.38.8-.29-.13.93-2,.29.13-.39.81,2.35,1.11-.16.34Z"/>
      </g>
      <polygon class="cls-26" points="150.7 133.5 148.64 131.64 151.46 131.88 148.98 133.09 150.04 130.84 150.7 133.5"/>
      <polygon class="cls-26" points="155.17 124.05 153.11 122.19 155.93 122.44 153.45 123.64 154.51 121.4 155.17 124.05"/>
      <polygon class="cls-26" points="159.32 115.25 157.26 113.4 160.09 113.64 157.61 114.84 158.67 112.6 159.32 115.25"/>
      <polygon class="cls-26" points="145.6 121.41 144.42 120.34 146.03 120.48 144.62 121.17 145.22 119.89 145.6 121.41"/>
      <polygon class="cls-26" points="144.67 123.36 143.5 122.3 145.11 122.44 143.69 123.13 144.3 121.85 144.67 123.36"/>
      <polygon class="cls-26" points="147.44 117.5 146.27 116.44 147.88 116.58 146.46 117.26 147.07 115.98 147.44 117.5"/>
      <polygon class="cls-26" points="146.52 119.45 145.34 118.39 146.96 118.53 145.54 119.22 146.15 117.94 146.52 119.45"/>
      <path class="cls-23" d="M110.7,102.31l15-5.56a5,5,0,0,0,6.49,3l12,32.5a5,5,0,0,0-3,6.49l-15,5.57a5.05,5.05,0,0,0-6.49-3l-12-32.49A5.06,5.06,0,0,0,110.7,102.31Z"/>
      <path class="cls-24" d="M110.07,102.55l15-5.57a5.05,5.05,0,0,0,6.5,3l12,32.5a5.05,5.05,0,0,0-3,6.49l-15,5.57a5.05,5.05,0,0,0-6.5-3l-12-32.5A5.05,5.05,0,0,0,110.07,102.55Z"/>
      <path class="cls-25" d="M111.05,110.26a1.69,1.69,0,0,1,1-2.16l15-5.54a1.69,1.69,0,0,1,2.17,1l10.26,27.72a1.69,1.69,0,0,1-1,2.17l-15,5.53a1.67,1.67,0,0,1-2.16-1Z"/>
      <path class="cls-26" d="M122.9,139.54a2.16,2.16,0,0,1-2-1.39l-10.26-27.73a2.13,2.13,0,0,1,1.26-2.75l15-5.54a2.18,2.18,0,0,1,2.75,1.27l10.26,27.72a2.16,2.16,0,0,1-1.26,2.76l-15,5.53A2.1,2.1,0,0,1,122.9,139.54Zm4.69-36.63a1.26,1.26,0,0,0-.43.08l-15,5.53a1.21,1.21,0,0,0-.69.64,1.23,1.23,0,0,0,0,.94l10.27,27.73a1.23,1.23,0,0,0,1.57.72l15-5.53a1.23,1.23,0,0,0,.72-1.58l-10.26-27.73A1.23,1.23,0,0,0,127.59,102.91Z"/>
      <g>
        <path class="cls-26" d="M125.39,130.24a2.58,2.58,0,0,1,.49.83,1.69,1.69,0,0,1-1.09,2.3,1.8,1.8,0,0,1-2.43-1.11,2,2,0,0,1-.15-.86l.4,0a1.73,1.73,0,0,0,.11.73,1.34,1.34,0,0,0,1.88.8,1.31,1.31,0,0,0,.88-1.8,2,2,0,0,0-.41-.66Z"/>
        <path class="cls-26" d="M121.44,129.61l3.38-1.25.16.44-3.38,1.25Z"/>
        <path class="cls-26" d="M124.22,126.75,120.84,128l-.17-.48,1.31-1.71a9.38,9.38,0,0,1,.87-1h0c-.44.2-.84.37-1.37.56l-1.41.52-.15-.41,3.37-1.25.16.44-1.31,1.71a11.76,11.76,0,0,1-.9,1h0c.41-.18.81-.34,1.37-.55l1.45-.53Z"/>
        <path class="cls-26" d="M120.45,121.44l.49,1.31,1.22-.45-.54-1.46.36-.14.7,1.9-3.37,1.25-.68-1.83.37-.13.51,1.39,1.07-.4-.49-1.31Z"/>
        <path class="cls-26" d="M118.92,117c-.46.2-1,.43-1.44.59h0c.44,0,.91,0,1.44,0h1.86l.12.33L119.5,119a12.77,12.77,0,0,1-1.17.88h0c.42-.15,1-.33,1.52-.49l1.48-.44.15.41-3.46,1-.21-.56,1.42-1.18c.36-.29.69-.55,1-.76v0c-.38,0-.79.06-1.27.07h-1.86l-.2-.55,3.29-1.46.16.42Z"/>
        <path class="cls-26" d="M118.4,114.3l1.2,0,.16.45-3.8.1-.19-.53,3-2.4.17.47-.93.75Zm-.75-1-.84.69-.56.4h0l.67,0,1.1,0Z"/>
      </g>
      <rect class="cls-26" x="125.06" y="106.16" width="0.67" height="28.8" transform="translate(-34.05 51.03) rotate(-20.31)"/>
      <g>
        <path class="cls-26" d="M129.69,126.53l.29.78-.28.1-.7-1.89.28-.1.29.78,2.27-.84.13.33Z"/>
        <path class="cls-26" d="M128.54,124.26l2.55-.94.12.33-2.55.94Z"/>
        <path class="cls-26" d="M129.89,120.34a1.76,1.76,0,0,1,.38.63,1.28,1.28,0,0,1-.83,1.74,1.35,1.35,0,0,1-1.83-.84,1.49,1.49,0,0,1-.12-.64l.3,0a1.33,1.33,0,0,0,.09.55,1,1,0,0,0,1.42.61A1,1,0,0,0,130,121a1.28,1.28,0,0,0-.3-.49Z"/>
        <path class="cls-26" d="M127,120.2l-.12-.33,1.23-.46h0l-.35-.1-1.25-.42-.15-.41,1.43.52,1.1-1.54.14.39-.94,1.3.37.14,1-.36.13.33Z"/>
        <path class="cls-26" d="M126.9,115.67l.37,1,.92-.34-.41-1.11.28-.1.53,1.43-2.56,1-.51-1.38.28-.1.39,1,.8-.3-.36-1Z"/>
        <path class="cls-26" d="M125.18,114.34l.29.78-.28.1-.7-1.89.28-.1.29.78,2.27-.85.13.34Z"/>
      </g>
      <polygon class="cls-26" points="136.47 127 133.88 127.16 135.89 125.44 135.07 127.88 134.27 125.71 136.47 127"/>
      <polygon class="cls-26" points="133.08 117.84 130.49 118 132.5 116.27 131.68 118.72 130.88 116.55 133.08 117.84"/>
      <polygon class="cls-26" points="129.92 109.31 127.34 109.47 129.34 107.75 128.53 110.19 127.72 108.02 129.92 109.31"/>
      <polygon class="cls-26" points="125.06 122.5 123.58 122.6 124.73 121.61 124.26 123.01 123.8 121.77 125.06 122.5"/>
      <polygon class="cls-26" points="125.76 124.4 124.28 124.49 125.43 123.5 124.96 124.9 124.5 123.66 125.76 124.4"/>
      <polygon class="cls-26" points="123.66 118.71 122.17 118.81 123.32 117.82 122.86 119.22 122.4 117.97 123.66 118.71"/>
      <polygon class="cls-26" points="124.36 120.61 122.88 120.7 124.03 119.72 123.56 121.11 123.1 119.87 124.36 120.61"/>
    </g>
    <g>
      <g>
        <path class="cls-2" d="M66.81,133.89a4.58,4.58,0,0,0-9.13-.55v.06a3.12,3.12,0,1,0,2.56,5.26,4.34,4.34,0,1,0,6.57-4.77Z"/>
        <path class="cls-3" d="M64.11,140.43a4.33,4.33,0,0,1-3.71-3.17,3.16,3.16,0,0,1-2.59.94,3.11,3.11,0,0,1-2.75-2.73,3.11,3.11,0,0,0,5.18,3.19,4.35,4.35,0,0,0,8.51-.68,4.22,4.22,0,0,0,0-.71A4.32,4.32,0,0,1,64.11,140.43Z"/>
        <path class="cls-4" d="M63.43,133.65a.81.81,0,0,0-.22,0v0a1.22,1.22,0,0,0-2.43-.25h0A1.53,1.53,0,1,0,62,135.77a1.43,1.43,0,0,0,1.11.74,1.44,1.44,0,1,0,.29-2.86Z"/>
      </g>
      <g>
        <path class="cls-2" d="M78.83,141.73A6.21,6.21,0,0,0,72.56,131l-.07,0a4.24,4.24,0,0,0-7,4.66,4.27,4.27,0,0,0,3,2.21,5.9,5.9,0,1,0,10.34,3.81Z"/>
        <path class="cls-3" d="M69.4,143.63a5.9,5.9,0,0,1,.78-6.6,4.23,4.23,0,0,1-2-7.38,3.81,3.81,0,0,0-.9.35,4.23,4.23,0,0,0,1.22,7.92,5.89,5.89,0,0,0,7.17,9.1,6,6,0,0,0,.82-.52A5.91,5.91,0,0,1,69.4,143.63Z"/>
        <path class="cls-4" d="M76.55,137.74c0-.09-.11-.17-.16-.25h0a1.66,1.66,0,0,0-1.56-2.93h0a2.09,2.09,0,1,0-1.75,3.21,1.9,1.9,0,0,0,0,1.81,2,2,0,1,0,3.45-1.83Z"/>
      </g>
      <g>
        <path class="cls-7" d="M61.63,137.66a4.21,4.21,0,0,0-.62.05.09.09,0,0,0,0-.05,3.44,3.44,0,0,0-6.88,0v0A4.32,4.32,0,1,0,58.3,144a4,4,0,1,0,3.33-6.34Z"/>
        <path class="cls-8" d="M61.63,144.09a4,4,0,0,1-3.33-1.75,4.33,4.33,0,0,1-8.07-1.19,4.58,4.58,0,0,0-.08.83,4.32,4.32,0,0,0,8.15,2,4,4,0,0,0,7.37-2.29,4.6,4.6,0,0,0-.08-.84A4.05,4.05,0,0,1,61.63,144.09Z"/>
        <path class="cls-4" d="M58.8,138.57a1.35,1.35,0,0,0-.29,0,1,1,0,1,0-1.79,1A1.49,1.49,0,1,0,58.77,141h0a1.22,1.22,0,1,0,0-2.44Z"/>
      </g>
    </g>
    <g>
      <g>
        <path class="cls-2" d="M91.05,137.23a3.64,3.64,0,0,0-7.25-.44v.05a2.48,2.48,0,1,0,2,4.18,3.45,3.45,0,1,0,5.22-3.79Z"/>
        <path class="cls-3" d="M88.91,142.43a3.45,3.45,0,0,1-3-2.52,2.48,2.48,0,0,1-4.25-1.43,3.39,3.39,0,0,0-.13.55,2.48,2.48,0,0,0,4.25,2,3.46,3.46,0,0,0,6.77-.54,3.51,3.51,0,0,0,0-.56A3.45,3.45,0,0,1,88.91,142.43Z"/>
        <path class="cls-4" d="M88.37,137H88.2a1,1,0,0,0-1.94-.19h0a1.22,1.22,0,0,0-.15,2.44,1.24,1.24,0,0,0,1.14-.54,1.17,1.17,0,0,0,.89.58,1.14,1.14,0,0,0,.23-2.27Z"/>
      </g>
      <g>
        <path class="cls-2" d="M100.61,143.47a4.95,4.95,0,0,0-5-8.53l-.05,0a3.37,3.37,0,1,0-3.18,5.46,4.69,4.69,0,1,0,8.22,3Z"/>
        <path class="cls-3" d="M93.11,145a4.71,4.71,0,0,1,.63-5.25,3.36,3.36,0,0,1-1.6-5.87,3.13,3.13,0,0,0-.72.27,3.36,3.36,0,0,0,1,6.3,4.69,4.69,0,0,0,5.71,7.24,4.5,4.5,0,0,0,.65-.42A4.7,4.7,0,0,1,93.11,145Z"/>
        <path class="cls-4" d="M98.8,140.29a1.37,1.37,0,0,0-.13-.2h0a1.32,1.32,0,0,0-1.24-2.33h0a1.65,1.65,0,0,0-2.86,1.66,1.62,1.62,0,0,0,1.47.88,1.55,1.55,0,1,0,2.75,0Z"/>
      </g>
      <g>
        <path class="cls-7" d="M86.93,140.23a2.59,2.59,0,0,0-.48,0v0a2.74,2.74,0,1,0-5.47,0h0a3.44,3.44,0,1,0,3.31,5,3.21,3.21,0,1,0,2.64-5Z"/>
        <path class="cls-8" d="M86.93,145.34A3.21,3.21,0,0,1,84.29,144a3.44,3.44,0,0,1-6.42-.95,3.6,3.6,0,0,0-.06.66,3.44,3.44,0,0,0,6.48,1.61,3.21,3.21,0,0,0,5.86-1.83,3,3,0,0,0-.07-.66A3.22,3.22,0,0,1,86.93,145.34Z"/>
        <path class="cls-4" d="M84.69,141l-.24,0a.81.81,0,0,0-.73-.46.82.82,0,0,0-.82.82.81.81,0,0,0,.14.46,1.18,1.18,0,1,0,1.63,1.09h0a1,1,0,1,0,0-1.94Z"/>
      </g>
    </g>
    <g>
      <path class="cls-27" d="M184.51,139.76H153.82a2.21,2.21,0,0,1-2.16-2.26v-2.16a2.21,2.21,0,0,1,2.16-2.26h30.69a2.21,2.21,0,0,1,2.17,2.26v2.16A2.21,2.21,0,0,1,184.51,139.76Z"/>
      <rect class="cls-27" x="180.06" y="133.86" width="6.62" height="12.88" rx="1.81"/>
      <path class="cls-28" d="M154.12,133.08H95.31v15.61h23.55v-6.06a1.71,1.71,0,0,1,1.67-1.74h7.9a1.71,1.71,0,0,1,1.67,1.74v6.06h24Z"/>
      <path class="cls-27" d="M152.44,133.08H93.63v15.61h23.55v-6.06a1.71,1.71,0,0,1,1.68-1.74h7.89a1.71,1.71,0,0,1,1.68,1.74v6.06h24Z"/>
      <path class="cls-28" d="M115.31,145.24a1.71,1.71,0,0,1-1.68,1.75H97.06a1.71,1.71,0,0,1-1.67-1.75v-8.71a1.71,1.71,0,0,1,1.67-1.74h16.57a1.71,1.71,0,0,1,1.68,1.74Z"/>
      <path class="cls-29" d="M115.31,145.24a1.68,1.68,0,0,1-1.6,1.75H97.9a1.68,1.68,0,0,1-1.6-1.75v-8.71a1.68,1.68,0,0,1,1.6-1.74h15.81a1.68,1.68,0,0,1,1.6,1.74Z"/>
      <path class="cls-29" d="M115.31,145.24a1.68,1.68,0,0,1-1.6,1.75H97.9a1.68,1.68,0,0,1-1.6-1.75v-8.71a1.68,1.68,0,0,1,1.6-1.74h15.81a1.68,1.68,0,0,1,1.6,1.74Z"/>
      <path class="cls-28" d="M150.49,145.24a1.71,1.71,0,0,1-1.68,1.75H132.25a1.71,1.71,0,0,1-1.68-1.75v-8.71a1.71,1.71,0,0,1,1.68-1.74h16.56a1.71,1.71,0,0,1,1.68,1.74Z"/>
      <path class="cls-30" d="M150.49,145.24A1.67,1.67,0,0,1,148.9,147H133.25a1.67,1.67,0,0,1-1.59-1.75v-8.71a1.67,1.67,0,0,1,1.59-1.74H148.9a1.67,1.67,0,0,1,1.59,1.74Z"/>
      <polygon class="cls-31" points="101.9 146.99 98.37 146.99 102.81 134.79 106.34 134.79 101.9 146.99"/>
      <polygon class="cls-31" points="105.68 146.99 103.59 146.99 108.03 134.79 110.12 134.79 105.68 146.99"/>
      <polygon class="cls-31" points="107.51 146.99 106.86 146.99 111.3 134.79 111.95 134.79 107.51 146.99"/>
      <polygon class="cls-32" points="137.81 146.99 134.29 146.99 138.72 134.79 142.25 134.79 137.81 146.99"/>
      <polygon class="cls-32" points="141.6 146.99 139.51 146.99 143.95 134.79 146.04 134.79 141.6 146.99"/>
      <polygon class="cls-32" points="143.42 146.99 142.77 146.99 147.21 134.79 147.86 134.79 143.42 146.99"/>
      <g class="cls-33">
        <polygon class="cls-1" points="93.63 148.69 95.11 148.69 132.26 133.08 93.63 133.08 93.63 148.69"/>
      </g>
      <path class="cls-28" d="M185.3,139.76H154.61a2.21,2.21,0,0,1-2.17-2.26v-2.16a2.21,2.21,0,0,1,2.17-2.26H185.3a2.21,2.21,0,0,1,2.16,2.26v2.16A2.21,2.21,0,0,1,185.3,139.76Z"/>
      <rect class="cls-28" x="180.84" y="133.86" width="6.62" height="12.88" rx="1.81"/>
    </g>
  </g>
</svg>
